<svg xmlns="http://www.w3.org/2000/svg" xmlns:xlink="http://www.w3.org/1999/xlink" width="521.56" height="66.205" viewBox="0 0 521.56 66.205"><defs><linearGradient id="a" x1="0.5" y1="0.002" x2="0.5" y2="0.994" gradientUnits="objectBoundingBox"><stop offset="0" stop-color="#fff"/><stop offset="1" stop-color="#d8d9da"/></linearGradient><linearGradient id="b" x1="0.5" y1="0.997" x2="0.5" y2="0.502" gradientUnits="objectBoundingBox"><stop offset="0" stop-color="#4a3d7b"/><stop offset="1" stop-color="#5d4d96"/></linearGradient><linearGradient id="c" x1="0.5" y1="0.997" x2="0.5" y2="0.503" gradientUnits="objectBoundingBox"><stop offset="0" stop-color="#b48a20"/><stop offset="1" stop-color="#fabd24"/></linearGradient><linearGradient id="d" x1="0.5" y1="0.821" x2="0.5" y2="0.029" gradientUnits="objectBoundingBox"><stop offset="0" stop-color="#fff"/><stop offset="0.073" stop-color="#fff" stop-opacity="0.871"/><stop offset="0.216" stop-color="#fff" stop-opacity="0.643"/><stop offset="0.36" stop-color="#fff" stop-opacity="0.447"/><stop offset="0.5" stop-color="#fff" stop-opacity="0.286"/><stop offset="0.636" stop-color="#fff" stop-opacity="0.161"/><stop offset="0.767" stop-color="#fff" stop-opacity="0.071"/><stop offset="0.891" stop-color="#fff" stop-opacity="0.02"/><stop offset="1" stop-color="#fff" stop-opacity="0"/></linearGradient></defs><g transform="translate(-730 -17.897)"><g transform="translate(0 142)"><path d="M11.1-9.76A3.278,3.278,0,0,0,9.78-11.1a4.017,4.017,0,0,0-1.96-.46,4.285,4.285,0,0,0-2.2.56,3.868,3.868,0,0,0-1.5,1.6A5.135,5.135,0,0,0,3.58-7a5.147,5.147,0,0,0,.55,2.44,3.894,3.894,0,0,0,1.53,1.6,4.515,4.515,0,0,0,2.28.56,3.955,3.955,0,0,0,2.62-.85A4.057,4.057,0,0,0,11.9-5.62H7.1V-7.76h7.56v2.44a6.558,6.558,0,0,1-1.2,2.7A6.775,6.775,0,0,1,11.09-.63,6.968,6.968,0,0,1,7.84.12,7.359,7.359,0,0,1,4.19-.79,6.621,6.621,0,0,1,1.63-3.32,7.258,7.258,0,0,1,.7-7a7.313,7.313,0,0,1,.93-3.69,6.6,6.6,0,0,1,2.56-2.54,7.319,7.319,0,0,1,3.63-.91,7.264,7.264,0,0,1,4.1,1.15,5.872,5.872,0,0,1,2.4,3.23ZM22.54-11.7v3.5h4.7v2.22h-4.7v3.7h5.3V0h-8.1V-13.98h8.1v2.28ZM38.2.14a6.631,6.631,0,0,1-2.63-.5A4.318,4.318,0,0,1,33.72-1.8a3.792,3.792,0,0,1-.7-2.22h3a1.94,1.94,0,0,0,.61,1.36,2.161,2.161,0,0,0,1.51.5,2.323,2.323,0,0,0,1.54-.47,1.529,1.529,0,0,0,.56-1.23,1.421,1.421,0,0,0-.38-1.02,2.663,2.663,0,0,0-.95-.63,15.721,15.721,0,0,0-1.57-.51,16.815,16.815,0,0,1-2.21-.79,3.871,3.871,0,0,1-1.46-1.18,3.363,3.363,0,0,1-.61-2.11,3.773,3.773,0,0,1,.62-2.16,3.943,3.943,0,0,1,1.74-1.41,6.33,6.33,0,0,1,2.56-.49,5.554,5.554,0,0,1,3.51,1.05,3.893,3.893,0,0,1,1.49,2.93H39.9a1.6,1.6,0,0,0-.61-1.19,2.3,2.3,0,0,0-1.51-.47,1.944,1.944,0,0,0-1.31.42,1.518,1.518,0,0,0-.49,1.22,1.261,1.261,0,0,0,.37.93,2.822,2.822,0,0,0,.92.6q.55.23,1.55.53a16.284,16.284,0,0,1,2.22.8,3.987,3.987,0,0,1,1.48,1.2,3.333,3.333,0,0,1,.62,2.1,3.95,3.95,0,0,1-.58,2.08,4.1,4.1,0,0,1-1.7,1.53A5.8,5.8,0,0,1,38.2.14Zm19.86-14.1v2.26H54.34V0h-2.8V-11.7H47.82v-2.26Zm7.84,0V0H63.1V-13.96ZM78.14.14a7.233,7.233,0,0,1-3.6-.92,6.869,6.869,0,0,1-2.6-2.55,7.133,7.133,0,0,1-.96-3.69,7.1,7.1,0,0,1,.96-3.67,6.869,6.869,0,0,1,2.6-2.55,7.233,7.233,0,0,1,3.6-.92,7.216,7.216,0,0,1,3.61.92,6.816,6.816,0,0,1,2.58,2.55,7.153,7.153,0,0,1,.95,3.67,7.192,7.192,0,0,1-.95,3.69A6.8,6.8,0,0,1,81.74-.78,7.233,7.233,0,0,1,78.14.14Zm0-2.5a4.265,4.265,0,0,0,2.22-.57,3.907,3.907,0,0,0,1.5-1.63,5.349,5.349,0,0,0,.54-2.46,5.287,5.287,0,0,0-.54-2.45,3.854,3.854,0,0,0-1.5-1.61,4.325,4.325,0,0,0-2.22-.56,4.379,4.379,0,0,0-2.23.56A3.835,3.835,0,0,0,74.4-9.47a5.287,5.287,0,0,0-.54,2.45,5.349,5.349,0,0,0,.54,2.46,3.887,3.887,0,0,0,1.51,1.63A4.319,4.319,0,0,0,78.14-2.36ZM102.3,0H99.5L93.16-9.58V0h-2.8V-13.98h2.8l6.34,9.6v-9.6h2.8ZM120,0h-2.8l-6.34-9.58V0h-2.8V-13.98h2.8l6.34,9.6v-9.6H120Zm14.32-2.66h-5.56L127.84,0H124.9l5.02-13.98h3.26L138.2,0h-2.96Zm-.76-2.24-2.02-5.84L129.52-4.9Zm12.32-9.06V0h-2.8V-13.96ZM158.84,0l-3.08-5.44h-1.32V0h-2.8V-13.96h5.24a6.119,6.119,0,0,1,2.76.57,3.982,3.982,0,0,1,1.71,1.54,4.2,4.2,0,0,1,.57,2.17,4.156,4.156,0,0,1-.8,2.49,4.11,4.11,0,0,1-2.38,1.53L162.08,0Zm-4.4-7.54h2.34a2.338,2.338,0,0,0,1.7-.55,2.047,2.047,0,0,0,.56-1.53,1.953,1.953,0,0,0-.56-1.49,2.394,2.394,0,0,0-1.7-.53h-2.34Zm15.82-4.16v3.5h4.7v2.22h-4.7v3.7h5.3V0h-8.1V-13.98h8.1v2.28ZM6.26,10.04a8.338,8.338,0,0,1,3.87.86,6.144,6.144,0,0,1,2.58,2.45,7.3,7.3,0,0,1,.91,3.69,7.188,7.188,0,0,1-.91,3.67,6.18,6.18,0,0,1-2.58,2.43A8.338,8.338,0,0,1,6.26,24H1.38V10.04Zm-.1,11.58a4.6,4.6,0,0,0,3.4-1.2,4.57,4.57,0,0,0,1.2-3.38,4.676,4.676,0,0,0-1.2-3.41,4.533,4.533,0,0,0-3.4-1.23H4.18v9.22ZM21.52,12.3v3.5h4.7v2.22h-4.7v3.7h5.3V24h-8.1V10.02h8.1V12.3ZM44.94,24.14a6.631,6.631,0,0,1-2.63-.5,4.318,4.318,0,0,1-1.85-1.44,3.792,3.792,0,0,1-.7-2.22h3a1.94,1.94,0,0,0,.61,1.36,2.161,2.161,0,0,0,1.51.5,2.323,2.323,0,0,0,1.54-.47,1.529,1.529,0,0,0,.56-1.23,1.421,1.421,0,0,0-.38-1.02,2.663,2.663,0,0,0-.95-.63,15.721,15.721,0,0,0-1.57-.51,16.815,16.815,0,0,1-2.21-.79,3.871,3.871,0,0,1-1.46-1.18,3.363,3.363,0,0,1-.61-2.11,3.773,3.773,0,0,1,.62-2.16,3.943,3.943,0,0,1,1.74-1.41,6.33,6.33,0,0,1,2.56-.49,5.554,5.554,0,0,1,3.51,1.05,3.893,3.893,0,0,1,1.49,2.93H46.64a1.6,1.6,0,0,0-.61-1.19,2.3,2.3,0,0,0-1.51-.47,1.944,1.944,0,0,0-1.31.42,1.518,1.518,0,0,0-.49,1.22,1.261,1.261,0,0,0,.37.93,2.822,2.822,0,0,0,.92.6q.55.23,1.55.53a16.284,16.284,0,0,1,2.22.8,3.987,3.987,0,0,1,1.48,1.2,3.333,3.333,0,0,1,.62,2.1,3.95,3.95,0,0,1-.58,2.08,4.1,4.1,0,0,1-1.7,1.53A5.8,5.8,0,0,1,44.94,24.14ZM58.1,10.04V24H55.3V10.04Zm15.26,0V12.3H69.64V24h-2.8V12.3H63.12V10.04ZM81.2,12.3v3.5h4.7v2.22H81.2v3.7h5.3V24H78.4V10.02h8.1V12.3ZM96.86,24.14a6.631,6.631,0,0,1-2.63-.5,4.318,4.318,0,0,1-1.85-1.44,3.792,3.792,0,0,1-.7-2.22h3a1.94,1.94,0,0,0,.61,1.36,2.161,2.161,0,0,0,1.51.5,2.323,2.323,0,0,0,1.54-.47,1.529,1.529,0,0,0,.56-1.23,1.421,1.421,0,0,0-.38-1.02,2.663,2.663,0,0,0-.95-.63A15.722,15.722,0,0,0,96,17.98a16.815,16.815,0,0,1-2.21-.79,3.871,3.871,0,0,1-1.46-1.18,3.363,3.363,0,0,1-.61-2.11,3.773,3.773,0,0,1,.62-2.16,3.944,3.944,0,0,1,1.74-1.41,6.33,6.33,0,0,1,2.56-.49,5.554,5.554,0,0,1,3.51,1.05,3.893,3.893,0,0,1,1.49,2.93H98.56a1.6,1.6,0,0,0-.61-1.19,2.3,2.3,0,0,0-1.51-.47,1.944,1.944,0,0,0-1.31.42,1.518,1.518,0,0,0-.49,1.22,1.261,1.261,0,0,0,.37.93,2.822,2.822,0,0,0,.92.6q.55.23,1.55.53a16.283,16.283,0,0,1,2.22.8,3.987,3.987,0,0,1,1.48,1.2,3.333,3.333,0,0,1,.62,2.1,3.95,3.95,0,0,1-.58,2.08,4.1,4.1,0,0,1-1.7,1.53A5.8,5.8,0,0,1,96.86,24.14Z" transform="translate(1076 -96)" fill="#fff"/><path d="M1,50H-1V0H1Z" transform="translate(1036 -116)" fill="#fff" opacity="0.5"/></g><g transform="translate(632.638 -328.139)"><path d="M123.517,372.276a9.711,9.711,0,0,1,10.568-2.156,9.575,9.575,0,0,1,3.234,2.156l2.3,2.227,4.457-4.527-2.229-2.23a15.712,15.712,0,0,0-5.354-3.555,16.137,16.137,0,0,0-12.149,0,15.82,15.82,0,0,0-5.357,3.555,15.5,15.5,0,0,0-3.521,5.321,16.653,16.653,0,0,0,0,12.147,15.456,15.456,0,0,0,3.521,5.32,15.841,15.841,0,0,0,5.357,3.557,16.124,16.124,0,0,0,12.149,0,15.733,15.733,0,0,0,5.354-3.557l2.229-2.23-4.457-4.526-2.3,2.229a8.786,8.786,0,0,1-3.161,2.153,9.922,9.922,0,0,1-3.737.719,9.417,9.417,0,0,1-6.9-2.872,9.574,9.574,0,0,1-2.154-3.238,9.683,9.683,0,0,1,0-7.328A8.8,8.8,0,0,1,123.517,372.276Z" fill="url(#a)"/><path d="M148.982,379.147a18.51,18.51,0,0,1-18.508,18.509v.008l-6.044,5.779,6.044,5.778c.534,0,1.069-.017,1.6-.044l-.072.02a1.256,1.256,0,0,1,1.369.793l.457,1.015a2.29,2.29,0,0,0,2.611,1.164l5.428-1.452a2.3,2.3,0,0,0,1.682-2.316l-.113-1.108a1.257,1.257,0,0,1,.754-1.353,30.319,30.319,0,0,0,2.859-1.656,1.237,1.237,0,0,1,1.357.123l.9.653a2.3,2.3,0,0,0,2.848-.3l3.972-3.972a2.3,2.3,0,0,0,.3-2.848l-.654-.9a1.26,1.26,0,0,1,0-1.585l0,0a29.306,29.306,0,0,0,1.544-2.694,1.255,1.255,0,0,1,1.324-.71l1.106.114a2.294,2.294,0,0,0,2.315-1.68l1.454-5.429a2.3,2.3,0,0,0-1.163-2.614l-1.018-.453a1.258,1.258,0,0,1-.793-1.371l-.035.131a30.434,30.434,0,0,0,0-3.211l.02.073a1.257,1.257,0,0,1,.792-1.371l1.017-.453a2.3,2.3,0,0,0,1.163-2.615l-1.452-5.428a2.3,2.3,0,0,0-2.317-1.681l-1.106.117a1.257,1.257,0,0,1-1.363-.775,29.741,29.741,0,0,0-1.647-2.841,1.235,1.235,0,0,1,.124-1.355l.652-.9a2.3,2.3,0,0,0-.3-2.845l-3.973-3.974a2.3,2.3,0,0,0-2.846-.3l-.9.654a1.259,1.259,0,0,1-1.582.005,28.914,28.914,0,0,0-2.7-1.549,1.255,1.255,0,0,1-.7-1.319l.116-1.106a2.3,2.3,0,0,0-1.683-2.314l-5.428-1.454a2.294,2.294,0,0,0-2.612,1.164l-.453,1.014a1.26,1.26,0,0,1-1.371.8l.119.033q-.8-.043-1.6-.043l0,11.565A18.508,18.508,0,0,1,148.982,379.147Z" fill="url(#b)"/><path d="M130.457,409.2l-6.027-5.761,6.044-5.779v-.008h0v-.014a18.509,18.509,0,1,1,0-37.018v-.01l6.042-5.778-6.042-5.778c-.535,0-1.069.015-1.6.045l.072-.021a1.258,1.258,0,0,1-1.369-.794l-.456-1.014a2.293,2.293,0,0,0-2.611-1.166l-5.429,1.455a2.3,2.3,0,0,0-1.682,2.315l.114,1.107a1.259,1.259,0,0,1-.755,1.355,29.981,29.981,0,0,0-2.858,1.654,1.235,1.235,0,0,1-1.357-.122l-.9-.654a2.3,2.3,0,0,0-2.846.3l-3.973,3.972a2.3,2.3,0,0,0-.3,2.848l.655.9a1.257,1.257,0,0,1,0,1.583l0,0a28.835,28.835,0,0,0-1.543,2.7,1.256,1.256,0,0,1-1.324.708l-1.107-.115a2.3,2.3,0,0,0-2.315,1.681l-1.455,5.429a2.3,2.3,0,0,0,1.164,2.615l1.017.452a1.257,1.257,0,0,1,.794,1.371l.036-.131a30.436,30.436,0,0,0,0,3.211l-.019-.073a1.258,1.258,0,0,1-.793,1.371l-1.016.453a2.3,2.3,0,0,0-1.164,2.614L98.9,390.53a2.3,2.3,0,0,0,2.316,1.681l1.106-.117a1.258,1.258,0,0,1,1.363.775,29.291,29.291,0,0,0,1.649,2.84,1.239,1.239,0,0,1-.125,1.356l-.652.9a2.3,2.3,0,0,0,.3,2.848l3.974,3.973a2.293,2.293,0,0,0,2.845.3l.9-.653a1.258,1.258,0,0,1,1.583,0,29.707,29.707,0,0,0,2.7,1.547,1.255,1.255,0,0,1,.7,1.319l-.115,1.106a2.292,2.292,0,0,0,1.682,2.313l5.427,1.455a2.3,2.3,0,0,0,2.614-1.164l.453-1.015a1.256,1.256,0,0,1,1.369-.794l-.118-.033C129.4,409.191,129.93,409.2,130.457,409.2Z" fill="url(#c)"/><path d="M162.043,367.748a2.3,2.3,0,0,0-2.317-1.681l-1.106.117a1.257,1.257,0,0,1-1.363-.775,29.741,29.741,0,0,0-1.647-2.841,1.235,1.235,0,0,1,.124-1.355l.652-.9a2.3,2.3,0,0,0-.3-2.845l-3.973-3.974a2.3,2.3,0,0,0-2.846-.3l-.9.654a1.259,1.259,0,0,1-1.582.005,28.914,28.914,0,0,0-2.7-1.549,1.255,1.255,0,0,1-.7-1.319l.116-1.106a2.3,2.3,0,0,0-1.683-2.314l-5.428-1.454a2.294,2.294,0,0,0-2.612,1.164l-.453,1.014a1.26,1.26,0,0,1-1.371.8l.119.033c-.526-.029-1.054-.042-1.58-.043l-.015-.015c-.535,0-1.069.015-1.6.045l.072-.021a1.258,1.258,0,0,1-1.369-.794l-.456-1.014a2.293,2.293,0,0,0-2.611-1.166l-5.429,1.455a2.3,2.3,0,0,0-1.682,2.315l.114,1.107a1.259,1.259,0,0,1-.755,1.355,29.981,29.981,0,0,0-2.858,1.654,1.235,1.235,0,0,1-1.357-.122l-.9-.654a2.3,2.3,0,0,0-2.846.3l-3.973,3.972a2.3,2.3,0,0,0-.3,2.848l.655.9a1.257,1.257,0,0,1,0,1.583l0,0a28.835,28.835,0,0,0-1.543,2.7,1.256,1.256,0,0,1-1.324.708l-1.107-.115a2.3,2.3,0,0,0-2.315,1.681l-1.455,5.429a2.3,2.3,0,0,0,1.164,2.615l1.017.452a1.257,1.257,0,0,1,.794,1.371l.036-.131q-.043.818-.042,1.634a65.848,65.848,0,0,0,11.98,3.886,18.51,18.51,0,0,1,18.089-22.421v.014a18.51,18.51,0,0,1,18.1,22.407,65.917,65.917,0,0,0,11.977-3.886c0-.539-.013-1.078-.041-1.617l.02.073a1.257,1.257,0,0,1,.792-1.371l1.017-.453a2.3,2.3,0,0,0,1.163-2.615Z" opacity="0.28" fill="url(#d)"/><path d="M178.172,373.31a8.191,8.191,0,0,1,2.762-1.842,8.283,8.283,0,0,1,6.264,0,8.185,8.185,0,0,1,2.763,1.842l1.965,1.9,3.807-3.867-1.9-1.9a13.448,13.448,0,0,0-4.574-3.039,13.779,13.779,0,0,0-10.376,0,13.481,13.481,0,0,0-4.575,3.039,13.16,13.16,0,0,0-3.008,4.543,14.2,14.2,0,0,0,0,10.377A13.16,13.16,0,0,0,174.3,388.9a13.481,13.481,0,0,0,4.575,3.039,13.791,13.791,0,0,0,10.376,0,13.448,13.448,0,0,0,4.574-3.039l1.9-1.9-3.807-3.867-1.965,1.9a7.583,7.583,0,0,1-2.7,1.842,8.547,8.547,0,0,1-3.194.614,8.038,8.038,0,0,1-5.894-2.456,8.17,8.17,0,0,1-1.842-2.763,8.29,8.29,0,0,1,0-6.262A7.523,7.523,0,0,1,178.172,373.31Z" fill="#fff"/><path d="M221.366,369.409a14,14,0,0,0-4.36-2.947,13.894,13.894,0,0,0-10.713,0,14.243,14.243,0,0,0-4.421,2.947,13.649,13.649,0,0,0-2.979,4.362,13.906,13.906,0,0,0,0,10.713,13.932,13.932,0,0,0,7.4,7.4,13.439,13.439,0,0,0,5.34,1.074h13.753V379.142a13.4,13.4,0,0,0-1.074-5.371A13.919,13.919,0,0,0,221.366,369.409Zm-1.444,18.083h-8.289a8.371,8.371,0,0,1-5.924-2.426,8.218,8.218,0,0,1-1.781-2.67,8.308,8.308,0,0,1-.643-3.254,8.09,8.09,0,0,1,.643-3.223,8.33,8.33,0,0,1,7.705-5.066,8.112,8.112,0,0,1,3.224.644,8.348,8.348,0,0,1,4.42,4.422,8.057,8.057,0,0,1,.645,3.223Z" fill="#fff"/><path d="M272.54,369.409a14.368,14.368,0,0,0-4.391-2.947,13.863,13.863,0,0,0-11.634.432,13.784,13.784,0,0,0-4.79,4.082,13.856,13.856,0,0,0-4.757-4.082,13.28,13.28,0,0,0-6.293-1.506,13.479,13.479,0,0,0-5.341,1.074A13.762,13.762,0,0,0,228,373.771a13.4,13.4,0,0,0-1.074,5.371v13.814h5.464V379.142a8.091,8.091,0,0,1,.645-3.223,8.336,8.336,0,0,1,4.421-4.422,8.1,8.1,0,0,1,3.223-.644,8.337,8.337,0,0,1,3.254.644,8.247,8.247,0,0,1,2.67,1.782,8.34,8.34,0,0,1,1.782,2.64,8.125,8.125,0,0,1,.644,3.223v13.814h5.464V379.142a8.075,8.075,0,0,1,.646-3.223,8.348,8.348,0,0,1,4.42-4.422,8.1,8.1,0,0,1,3.223-.644,8.3,8.3,0,0,1,7.7,5.066,8.092,8.092,0,0,1,.646,3.223v13.814h5.464V379.142a13.364,13.364,0,0,0-1.077-5.371A13.624,13.624,0,0,0,272.54,369.409Z" fill="#fff"/><path d="M300.66,379.2a8.292,8.292,0,0,1-5.066,7.706,8.065,8.065,0,0,1-3.222.644,8.306,8.306,0,0,1-8.351-8.35V365.451h-5.464V379.2a13.439,13.439,0,0,0,1.075,5.342,13.906,13.906,0,0,0,7.4,7.4,13.824,13.824,0,0,0,9.793.338,13.176,13.176,0,0,0,3.836-2.088v.062a8.3,8.3,0,0,1-5.066,7.7,8.082,8.082,0,0,1-3.222.645h-2.764v5.465h2.764a13.415,13.415,0,0,0,5.372-1.075,13.747,13.747,0,0,0,4.36-2.978,14.3,14.3,0,0,0,2.947-4.391,13.407,13.407,0,0,0,1.074-5.371v-24.8H300.66Z" fill="#fff"/><path d="M330.069,368.091A8.306,8.306,0,0,1,325,375.8a8.1,8.1,0,0,1-3.223.645,13.479,13.479,0,0,0-4.452.736,14.044,14.044,0,0,0-3.9,2.088V354.337h-5.465v38.619h5.465v-2.763a8.107,8.107,0,0,1,.644-3.223,8.324,8.324,0,0,1,7.707-5.064,8.1,8.1,0,0,1,3.223.642,8.366,8.366,0,0,1,4.42,4.422,8.091,8.091,0,0,1,.645,3.223v2.763h5.464v-2.763a13.368,13.368,0,0,0-1.5-6.262,13.8,13.8,0,0,0-4.084-4.789,13.9,13.9,0,0,0,4.084-4.758,13.31,13.31,0,0,0,1.5-6.293v-2.7h-5.464Z" fill="#fff"/><path d="M364.237,381.445a8,8,0,0,0-1.782-2.61,8.634,8.634,0,0,0-2.638-1.752,8.158,8.158,0,0,0-3.225-.642H345.541a2.627,2.627,0,0,1-1.965-.828,2.776,2.776,0,0,1-.8-2,2.727,2.727,0,0,1,2.763-2.764H362.18v-5.465H345.541a8.128,8.128,0,0,0-3.224.645,8.143,8.143,0,0,0-4.36,4.361,8.384,8.384,0,0,0,0,6.445,8.624,8.624,0,0,0,1.752,2.641,7.988,7.988,0,0,0,2.608,1.781,8.127,8.127,0,0,0,3.224.645h11.051a2.741,2.741,0,0,1,2.025.8,2.668,2.668,0,0,1,.8,1.965,2.733,2.733,0,0,1-2.824,2.825H340.014v5.464h16.578a8.107,8.107,0,0,0,3.225-.644,8.363,8.363,0,0,0,4.42-4.42,8.389,8.389,0,0,0,0-6.447Z" fill="#fff"/><path d="M181.635,399.022h.709l1.565,4.165,1.155-3.556h.555l1.145,3.556,1.592-4.165h.709L187.173,404H186.4l-1.065-3.3L184.29,404h-.772Z" fill="#fff"/><path d="M191.177,399.022h.709l1.565,4.165,1.155-3.556h.555l1.145,3.556,1.592-4.165h.709L196.715,404h-.772l-1.065-3.3-1.046,3.3h-.772Z" fill="#fff"/><path d="M200.719,399.022h.71l1.565,4.165,1.154-3.556h.555l1.146,3.556,1.591-4.165h.71L206.258,404h-.773l-1.064-3.3-1.046,3.3H202.6Z" fill="#fff"/><path d="M211.117,402.85h.673V404h-.673Z" fill="#fff"/><path d="M220.22,402.541a2.691,2.691,0,0,1-5.138-1.037,2.648,2.648,0,0,1,2.692-2.591,2.617,2.617,0,0,1,2.456,1.619h-.755a1.994,1.994,0,0,0-1.691-.974,1.956,1.956,0,1,0-.055,3.911,2,2,0,0,0,1.746-.928Z" fill="#fff"/><path d="M228.207,404h-.645v-.937a2.15,2.15,0,0,1-1.928,1.055,2.925,2.925,0,0,1-2.192-1.055,2.651,2.651,0,0,1-.491-1.583,2.518,2.518,0,0,1,.518-1.51,2.823,2.823,0,0,1,2.147-1.054,2.149,2.149,0,0,1,1.946,1.054v-.945h.645Zm-4.583-2.465a1.99,1.99,0,0,0,2.01,1.937,1.966,1.966,0,0,0,1.928-1.929,1.94,1.94,0,0,0-1.946-1.982A1.981,1.981,0,0,0,223.624,401.532Z" fill="#fff"/><path d="M231.337,399.022h.637v.645a1.4,1.4,0,0,1,1.328-.754,2.036,2.036,0,0,1,1.61.754c.045.064.082.127.128.192.027-.065.063-.118.1-.192a1.991,1.991,0,0,1,1.573-.754,2.212,2.212,0,0,1,1.546.754,1.944,1.944,0,0,1,.464,1.492V404h-.673v-2.775a1.835,1.835,0,0,0-.245-1.072,1.344,1.344,0,0,0-1.128-.592,1.377,1.377,0,0,0-1.1.565,1.9,1.9,0,0,0-.209,1.1V404h-.673V401.15a1.6,1.6,0,0,0-.237-.991,1.38,1.38,0,0,0-1.119-.6,1.352,1.352,0,0,0-1.09.527,1.739,1.739,0,0,0-.237,1.065V404h-.674Z" fill="#fff"/><path d="M246.073,399.022l-2.873,6.721h-.71l.782-1.9-1.909-4.819h.718l1.591,3.965,1.683-3.965Z" fill="#fff"/><path d="M248.712,397.276h.674V402l2.282-2.974h.865l-1.929,2.491L252.66,404h-.865l-1.618-1.965-.791,1.018V404h-.674Z" fill="#fff"/><path d="M255.526,402.532a.9.9,0,0,0,.9.937.83.83,0,0,0,.873-.828c0-.6-.472-.818-.964-.955a2.168,2.168,0,0,1-.9-.437,1.267,1.267,0,0,1-.4-.945,1.4,1.4,0,0,1,1.437-1.391,1.378,1.378,0,0,1,1.373,1.345h-.673a.7.7,0,0,0-.773-.7.692.692,0,0,0-.692.691c0,.546.437.692.874.828.746.237,1.391.555,1.391,1.455a1.56,1.56,0,1,1-3.119,0Z" fill="#fff"/><path d="M261.12,402.85h.672V404h-.672Z" fill="#fff"/><path d="M265.277,399.022h.637v.719a1.813,1.813,0,0,1,1.545-.828,2.3,2.3,0,0,1,1.765.828,2.435,2.435,0,0,1,.455,1.636V404h-.673v-2.62a1.92,1.92,0,0,0-.291-1.182,1.549,1.549,0,0,0-1.282-.637,1.532,1.532,0,0,0-1.219.609,1.994,1.994,0,0,0-.263,1.21V404h-.674Z" fill="#fff"/><path d="M273.291,401.75a1.909,1.909,0,0,0,1.874,1.719,1.949,1.949,0,0,0,1.782-1.092h.7a2.641,2.641,0,0,1-2.419,1.738,2.6,2.6,0,1,1,1.982-4.239,2.821,2.821,0,0,1,.582,1.874Zm3.829-.609a1.982,1.982,0,0,0-1.9-1.583,1.953,1.953,0,0,0-1.928,1.583Z" fill="#fff"/><path d="M281.278,399.631h-1.037v-.609h1.037v-1.746h.673v1.746h1.154v.609h-1.154V404h-.673Z" fill="#fff"/></g></g></svg>