<svg xmlns="http://www.w3.org/2000/svg" xmlns:xlink="http://www.w3.org/1999/xlink" width="20" height="20" viewBox="0 0 20 20"><defs><clipPath id="a"><rect width="19.525" height="16.659" transform="translate(0 0)" fill="none"/></clipPath><clipPath id="c"><rect width="20" height="20"/></clipPath></defs><g id="b" clip-path="url(#c)"><rect width="20" height="20" fill="rgba(255,255,255,0)"/><g transform="translate(0.237 2)"><rect width="7.506" height="2.922" transform="translate(8.322 9.86)" fill="#707070"/><g clip-path="url(#a)"><path d="M17.608,8.548v5.323a.881.881,0,0,1-.88.88H2.788a.881.881,0,0,1-.88-.88V2.788a.882.882,0,0,1,.88-.881H6.915a.508.508,0,0,1,.378.159L8.754,4.083a2.416,2.416,0,0,0,1.9.909H10.9V3.085h-.252a.508.508,0,0,1-.378-.158L8.81.911A2.413,2.413,0,0,0,6.915,0H2.788A2.792,2.792,0,0,0,0,2.788V13.871a2.792,2.792,0,0,0,2.788,2.788h13.94a2.791,2.791,0,0,0,2.787-2.788V8.548Z" fill="#707070"/><path d="M12.769,3.077h2.372V.806h2V3.077h2.384V4.982H17.141v2.26h-2V4.982H12.769Z" fill="#f0b00e"/></g></g></g></svg>