<svg xmlns="http://www.w3.org/2000/svg" xmlns:xlink="http://www.w3.org/1999/xlink" width="20" height="20" viewBox="0 0 20 20"><defs><clipPath id="a"><rect width="19.402" height="19.945" transform="translate(0 0)" fill="none"/></clipPath><clipPath id="c"><rect width="20" height="20"/></clipPath></defs><g id="b" clip-path="url(#c)"><rect width="20" height="20" fill="rgba(255,255,255,0)"/><g transform="translate(0.299 0.028)"><g clip-path="url(#a)"><path d="M13.635,18.177l-.434-1.5H11.877l.535,1.853a.131.131,0,0,1,0,.109.146.146,0,0,1-.114.037H7.279a.258.258,0,0,1-.128-.023.2.2,0,0,1,.01-.12L7.7,16.674H6.373l-.434,1.5a1.336,1.336,0,0,0,1.34,1.77H12.3a1.361,1.361,0,0,0,1.34-1.768" fill="#707070"/><path d="M17.471,16.031H1.909A1.91,1.91,0,0,1,0,14.124V4.183a1.912,1.912,0,0,1,1.909-1.91h8.86V4.181H1.909l0,9.943H17.471l0-6.226H19.38v6.226a1.91,1.91,0,0,1-1.909,1.907" fill="#707070"/><path d="M9.807,12.708H3.834a3.462,3.462,0,0,1,.623-1.586A8.241,8.241,0,0,1,6.41,9.369a5.784,5.784,0,0,0,1.119-.94,1.026,1.026,0,0,0,.244-.611.7.7,0,0,0-.241-.533A.957.957,0,0,0,6.3,7.292a1.362,1.362,0,0,0-.325.806L3.98,7.944a2.916,2.916,0,0,1,.431-1.25A1.972,1.972,0,0,1,5.293,6a4.167,4.167,0,0,1,1.576-.239A4.649,4.649,0,0,1,8.5,5.993a1.965,1.965,0,0,1,.919.7,1.784,1.784,0,0,1,.336,1.059,2.1,2.1,0,0,1-.384,1.192,5.166,5.166,0,0,1-1.4,1.248q-.6.4-.8.554t-.477.415H9.807Z" fill="#707070"/><path d="M12.646,2.271h2.372V0h2V2.271H19.4V4.177H17.018V6.436h-2V4.177H12.646Z" fill="#f0b00e"/></g></g></g></svg>