<svg xmlns="http://www.w3.org/2000/svg" xmlns:xlink="http://www.w3.org/1999/xlink" width="20" height="20" viewBox="0 0 20 20"><defs><clipPath id="a"><rect width="17.51" height="16.417" transform="translate(0 0)" fill="none"/></clipPath><clipPath id="c"><rect width="20" height="20"/></clipPath></defs><g id="b" clip-path="url(#c)"><rect width="20" height="20" fill="rgba(255,255,255,0)"/><g transform="translate(1.245 1.791)"><rect width="1.908" height="5.193" transform="translate(13.549 11.217)" fill="#707070"/><rect width="1.908" height="2.55" transform="translate(7.729 0.01)" fill="#707070"/><rect width="1.908" height="9.746" transform="translate(7.729 6.672) rotate(-0.423)" fill="#707070"/><rect width="1.907" height="9.529" transform="translate(1.982 0.017) rotate(-0.433)" fill="#707070"/><rect width="1.907" height="2.766" transform="translate(2.054 13.644)" fill="#707070"/><rect width="1.908" height="7.101" transform="matrix(1, -0.01, 0.01, 1, 13.476, 0.02)" fill="#707070"/><g clip-path="url(#a)"><path d="M8.683,7.62A3.006,3.006,0,1,1,11.69,4.613,3.01,3.01,0,0,1,8.683,7.62m0-4.106a1.1,1.1,0,1,0,1.1,1.1,1.1,1.1,0,0,0-1.1-1.1" fill="#f0b00e"/><path d="M14.5,12.171a3.006,3.006,0,1,1,3.007-3.007A3.01,3.01,0,0,1,14.5,12.171m0-4.106a1.1,1.1,0,1,0,1.1,1.1,1.1,1.1,0,0,0-1.1-1.1" fill="#f0b00e"/><path d="M3.007,14.6a3.006,3.006,0,1,1,3.006-3.007A3.01,3.01,0,0,1,3.007,14.6m0-4.106a1.1,1.1,0,1,0,1.1,1.1,1.1,1.1,0,0,0-1.1-1.1" fill="#f0b00e"/></g></g></g></svg>