<svg xmlns="http://www.w3.org/2000/svg" xmlns:xlink="http://www.w3.org/1999/xlink" width="20" height="20" viewBox="0 0 20 20"><defs><clipPath id="a"><rect width="19.004" height="19.004" transform="translate(0 0)" fill="none"/></clipPath><clipPath id="c"><rect width="20" height="20"/></clipPath></defs><g id="b" clip-path="url(#c)"><rect width="20" height="20" fill="rgba(255,255,255,0)"/><g transform="translate(0.498 0.498)"><g clip-path="url(#a)"><path d="M10.1,18.151V14.782a5.239,5.239,0,0,1-.591.035v0a5.313,5.313,0,0,1,0-10.626v0A5.309,5.309,0,0,1,14.734,8.6h3.787l.128-.057a.659.659,0,0,0,.334-.751l-.417-1.558A.659.659,0,0,0,17.9,5.75l-.317.033a.36.36,0,0,1-.391-.222,8.769,8.769,0,0,0-.473-.816.355.355,0,0,1,.035-.389l.187-.259a.657.657,0,0,0-.085-.816L15.716,2.14a.66.66,0,0,0-.817-.086l-.258.188a.362.362,0,0,1-.454,0,8.464,8.464,0,0,0-.776-.444.362.362,0,0,1-.2-.379l.034-.317A.66.66,0,0,0,12.76.438L11.2.021a.658.658,0,0,0-.749.334l-.13.291a.361.361,0,0,1-.394.228l.034.01Q9.735.872,9.509.872L9.5.867c-.153,0-.307,0-.46.013l.02-.006A.362.362,0,0,1,8.671.646L8.541.355A.661.661,0,0,0,7.791.02L6.233.438A.659.659,0,0,0,5.75,1.1l.033.317a.363.363,0,0,1-.217.389,8.646,8.646,0,0,0-.821.475.353.353,0,0,1-.389-.035L4.1,2.061a.66.66,0,0,0-.817.086L2.14,3.288a.66.66,0,0,0-.086.817l.188.258a.362.362,0,0,1,0,.455h0a8.291,8.291,0,0,0-.443.774.361.361,0,0,1-.38.2L1.1,5.761a.66.66,0,0,0-.664.483L.02,7.8a.661.661,0,0,0,.334.751l.292.13a.359.359,0,0,1,.228.393l.01-.037a8.842,8.842,0,0,0,0,.921l0-.02a.362.362,0,0,1-.228.393l-.292.13a.659.659,0,0,0-.334.75l.417,1.559a.661.661,0,0,0,.665.482l.318-.033a.361.361,0,0,1,.391.222,8.343,8.343,0,0,0,.473.816.355.355,0,0,1-.036.389l-.187.258a.661.661,0,0,0,.086.818l1.14,1.14a.658.658,0,0,0,.817.086l.258-.188a.362.362,0,0,1,.455,0,8.564,8.564,0,0,0,.776.444.359.359,0,0,1,.2.378l-.033.318a.659.659,0,0,0,.483.664l1.558.417a.657.657,0,0,0,.75-.334l.13-.291a.359.359,0,0,1,.393-.228l-.034-.009c.151.007.3.011.453.011l.005,0c.154,0,.307,0,.461-.013l-.021.006a.427.427,0,0,1,.151.021" fill="#707070"/><path d="M10.1,12.029a2.647,2.647,0,0,1-.629.083,2.524,2.524,0,0,1-1.85-.769,2.576,2.576,0,0,1-.577-.868,2.592,2.592,0,0,1,0-1.963,2.362,2.362,0,0,1,.577-.848,2.6,2.6,0,0,1,2.831-.577,2.562,2.562,0,0,1,.867.577l.616.6,1.194-1.213-.6-.6A4.206,4.206,0,0,0,11.093,5.5a4.324,4.324,0,0,0-3.255,0A4.238,4.238,0,0,0,6.4,6.451,4.146,4.146,0,0,0,5.46,7.876a4.451,4.451,0,0,0,0,3.254A4.127,4.127,0,0,0,6.4,12.555a4.239,4.239,0,0,0,1.435.953,4.368,4.368,0,0,0,1.628.318,4.269,4.269,0,0,0,.629-.051Z" fill="#707070"/><path d="M18.9,18.42H12.03a3.968,3.968,0,0,1,.716-1.822,9.433,9.433,0,0,1,2.245-2.015A6.6,6.6,0,0,0,16.277,13.5a1.181,1.181,0,0,0,.281-.7.8.8,0,0,0-.278-.613,1.1,1.1,0,0,0-1.416.008,1.566,1.566,0,0,0-.373.927L12.2,12.945a3.361,3.361,0,0,1,.495-1.437,2.261,2.261,0,0,1,1.014-.792,4.785,4.785,0,0,1,1.811-.276,5.343,5.343,0,0,1,1.88.262,2.272,2.272,0,0,1,1.056.806,2.053,2.053,0,0,1,.385,1.217A2.407,2.407,0,0,1,18.4,14.1a5.924,5.924,0,0,1-1.6,1.435q-.692.455-.924.637t-.548.476H18.9Z" fill="#f0b00e"/></g></g></g></svg>