<svg xmlns="http://www.w3.org/2000/svg" xmlns:xlink="http://www.w3.org/1999/xlink" width="20" height="20" viewBox="0 0 20 20"><defs><clipPath id="a"><rect width="19.752" height="17.775" transform="translate(0 0)" fill="none"/></clipPath><clipPath id="c"><rect width="20" height="20"/></clipPath></defs><g id="b" clip-path="url(#c)"><rect width="20" height="20" fill="rgba(255,255,255,0)"/><g transform="translate(0.124 1)"><g clip-path="url(#a)"><path d="M13.815,16.007l-.434-1.5H12.057l.535,1.853a.131.131,0,0,1,0,.109.146.146,0,0,1-.114.037H7.459a.258.258,0,0,1-.128-.023.2.2,0,0,1,.01-.12L7.877,14.5H6.553L6.119,16a1.336,1.336,0,0,0,1.34,1.77h5.016a1.361,1.361,0,0,0,1.34-1.768" fill="#707070"/><path d="M17.831,13.86H1.909A1.91,1.91,0,0,1,0,11.953V2.011A1.911,1.911,0,0,1,1.909.1h8.98V2.01H1.909l0,9.943H17.831l0-2.828H19.74v2.828a1.91,1.91,0,0,1-1.909,1.907" fill="#707070"/><path d="M19.752,7.98H12.887A3.968,3.968,0,0,1,13.6,6.158a9.433,9.433,0,0,1,2.245-2.015,6.6,6.6,0,0,0,1.286-1.081,1.181,1.181,0,0,0,.281-.7.8.8,0,0,0-.278-.613,1.1,1.1,0,0,0-1.416.008,1.566,1.566,0,0,0-.373.927l-2.293-.177a3.361,3.361,0,0,1,.495-1.437A2.261,2.261,0,0,1,14.564.276,4.785,4.785,0,0,1,16.375,0a5.343,5.343,0,0,1,1.88.262,2.272,2.272,0,0,1,1.056.806A2.053,2.053,0,0,1,19.7,2.285a2.407,2.407,0,0,1-.441,1.37,5.924,5.924,0,0,1-1.6,1.435q-.691.454-.924.637t-.548.476h3.573Z" fill="#f0b00e"/></g></g></g></svg>