<svg xmlns="http://www.w3.org/2000/svg" xmlns:xlink="http://www.w3.org/1999/xlink" width="20" height="20" viewBox="0 0 20 20"><defs><clipPath id="a"><rect width="19.74" height="17.774" transform="translate(0 0)" fill="none"/></clipPath><clipPath id="c"><rect width="20" height="20"/></clipPath></defs><g id="b" clip-path="url(#c)"><rect width="20" height="20" fill="rgba(255,255,255,0)"/><g transform="translate(0.13 1)"><g clip-path="url(#a)"><path d="M13.815,16.007l-.434-1.5H12.057l.535,1.853a.131.131,0,0,1,0,.109.146.146,0,0,1-.114.037H7.459a.258.258,0,0,1-.128-.023.2.2,0,0,1,.01-.12L7.877,14.5H6.553L6.119,16a1.336,1.336,0,0,0,1.34,1.77h5.016a1.361,1.361,0,0,0,1.34-1.768" fill="#707070"/><path d="M19.718,0V7.98H17.4V2.751a7.115,7.115,0,0,1-1.086.659A8.835,8.835,0,0,1,15,3.891V2.1a5.671,5.671,0,0,0,1.814-.862A3.55,3.55,0,0,0,17.825,0Z" fill="#7964c7"/><path d="M17.831,13.86H1.909A1.91,1.91,0,0,1,0,11.952V2.011A1.911,1.911,0,0,1,1.909.1H11.44V2.01H1.909l0,9.942H17.831l0-2.828H19.74v2.827a1.91,1.91,0,0,1-1.909,1.908" fill="#707070"/></g></g></g></svg>