<svg xmlns="http://www.w3.org/2000/svg" xmlns:xlink="http://www.w3.org/1999/xlink" width="20" height="20" viewBox="0 0 20 20"><defs><clipPath id="b"><rect width="20" height="20"/></clipPath></defs><g id="a" clip-path="url(#b)"><rect width="20" height="20" fill="rgba(255,255,255,0)"/><path d="M0,17.5a1.5,1.5,0,0,1-1.061-.439,1.5,1.5,0,0,1,0-2.121l16-16a1.5,1.5,0,0,1,2.121,0,1.5,1.5,0,0,1,0,2.121l-16,16A1.5,1.5,0,0,1,0,17.5Z" transform="translate(2 2)" fill="#fff"/><path d="M0,17.5a1.5,1.5,0,0,1-1.061-.439,1.5,1.5,0,0,1,0-2.121l16-16a1.5,1.5,0,0,1,2.121,0,1.5,1.5,0,0,1,0,2.121l-16,16A1.5,1.5,0,0,1,0,17.5Z" transform="translate(18 2) rotate(90)" fill="#fff"/></g></svg>