<svg xmlns="http://www.w3.org/2000/svg" xmlns:xlink="http://www.w3.org/1999/xlink" width="20" height="20" viewBox="0 0 20 20"><defs><clipPath id="a"><rect width="16.391" height="16.39" fill="none"/></clipPath><clipPath id="c"><rect width="20" height="20"/></clipPath></defs><g id="b" clip-path="url(#c)"><rect width="20" height="20" fill="rgba(255,255,255,0)"/><g transform="translate(2 2)"><g clip-path="url(#a)"><path d="M15.6,6.908l-2.259-.565c-.058-.162-.122-.32-.2-.474l1.2-2-1.819-1.82h0l-2,1.2c-.154-.073-.312-.138-.474-.2L9.483.8H6.908L6.344,3.053c-.162.059-.32.124-.476.2l-2-1.2L2.052,3.872h0l1.2,2c-.073.154-.137.312-.2.474L.8,6.908h0V9.482h0l2.677.669-1.42,2.366,1.82,1.821h0l2-1.2q.231.109.474.2L6.908,15.6H9.483l.564-2.259q.243-.087.474-.2l2,1.2,1.819-1.82-1.2-2c.071-.154.137-.312.2-.474L15.6,9.482V6.908" fill="none"/><path d="M9.482,16.39H6.909a.8.8,0,0,1-.771-.6l-.41-1.636-1.447.868a.794.794,0,0,1-.971-.12l-1.819-1.82a.8.8,0,0,1-.12-.971l.868-1.446L.6,10.253A.8.8,0,0,1,0,9.482V6.908a.8.8,0,0,1,.6-.771l1.637-.409L1.371,4.281a.8.8,0,0,1,.12-.971L3.31,1.49a.8.8,0,0,1,.971-.12l1.448.869L6.138.6A.794.794,0,0,1,6.909,0H9.482a.8.8,0,0,1,.772.6l.408,1.636,1.447-.868a.8.8,0,0,1,.971.12L14.9,3.31a.794.794,0,0,1,.12.97l-.868,1.448,1.637.409a.8.8,0,0,1,.6.771V9.482a.8.8,0,0,1-.6.771l-1.637.409.868,1.447a.794.794,0,0,1-.12.97L13.081,14.9a.794.794,0,0,1-.971.12l-1.447-.868-.409,1.636a.8.8,0,0,1-.772.6M7.529,14.8H8.862l.414-1.656a.793.793,0,0,1,.5-.556c.138-.049.273-.106.4-.167a.793.793,0,0,1,.746.037l1.465.878.942-.941-.878-1.466a.8.8,0,0,1-.038-.747c.062-.132.119-.266.169-.4a.791.791,0,0,1,.554-.5L14.8,8.861V7.528l-1.657-.414a.792.792,0,0,1-.554-.5c-.05-.137-.105-.272-.167-.4a.792.792,0,0,1,.036-.75l.878-1.465L12.4,3.053l-1.464.878a.8.8,0,0,1-.747.038c-.132-.062-.267-.118-.4-.167a.8.8,0,0,1-.5-.556L8.862,1.589H7.53L7.115,3.246a.794.794,0,0,1-.5.555,4.384,4.384,0,0,0-.406.168.8.8,0,0,1-.747-.038L4,3.053l-.943.942L3.932,5.46a.8.8,0,0,1,.037.748,4.34,4.34,0,0,0-.167.4.8.8,0,0,1-.556.5L1.59,7.528V8.861l2.076.519a.795.795,0,0,1,.488,1.18l-1.1,1.834.941.942,1.466-.878a.8.8,0,0,1,.747-.037c.132.062.267.118.406.168a.793.793,0,0,1,.5.555Z" fill="#707070"/><path d="M8.195,11.4a3.21,3.21,0,1,1,3.21-3.21,3.214,3.214,0,0,1-3.21,3.21m0-5.148a1.938,1.938,0,1,0,1.939,1.938A1.94,1.94,0,0,0,8.195,6.257" fill="#fabd24"/></g></g></g></svg>