<svg xmlns="http://www.w3.org/2000/svg" xmlns:xlink="http://www.w3.org/1999/xlink" width="20" height="20" viewBox="0 0 20 20"><defs><clipPath id="a"><rect width="14.953" height="18.736" transform="translate(0 0)" fill="none"/></clipPath><clipPath id="c"><rect width="20" height="20"/></clipPath></defs><g id="b" clip-path="url(#c)"><rect width="20" height="20" fill="rgba(255,255,255,0)"/><g transform="translate(2.523 0.632)"><g clip-path="url(#a)"><path d="M12.164,18.736H2.787A2.79,2.79,0,0,1,0,15.949V2.787A2.79,2.79,0,0,1,2.787,0H6.869a3.024,3.024,0,0,1,2,.753l5.094,4.979a3,3,0,0,1,.991,2.238v7.979a2.791,2.791,0,0,1-2.788,2.787M2.787,1.907a.881.881,0,0,0-.88.88V15.949a.88.88,0,0,0,.88.879h9.377a.881.881,0,0,0,.881-.879V7.97a1.12,1.12,0,0,0-.381-.84L7.571,2.151a1.1,1.1,0,0,0-.7-.244Z" fill="#707070"/><rect width="8.207" height="1.59" transform="translate(3.291 10.401)" fill="#707070"/><rect width="8.207" height="1.59" transform="translate(3.291 13.362)" fill="#707070"/><rect width="4.844" height="1.59" transform="translate(3.292 7.389)" fill="#707070"/></g></g></g></svg>