<svg xmlns="http://www.w3.org/2000/svg" xmlns:xlink="http://www.w3.org/1999/xlink" width="20" height="20" viewBox="0 0 20 20"><defs><clipPath id="a"><rect width="19.515" height="16.659" fill="none"/></clipPath><clipPath id="c"><rect width="20" height="20"/></clipPath></defs><g id="b" clip-path="url(#c)"><rect width="20" height="20" fill="rgba(255,255,255,0)"/><g transform="translate(0.242 1.67)"><g transform="translate(0 0)" clip-path="url(#a)"><path d="M2.788,16.659H16.727a2.792,2.792,0,0,0,2.788-2.788v-8a2.791,2.791,0,0,0-2.788-2.787H10.648a.519.519,0,0,1-.405-.2L8.838.947A2.436,2.436,0,0,0,6.915,0H2.788A2.79,2.79,0,0,0,0,2.788V13.871a2.791,2.791,0,0,0,2.788,2.788M16.727,4.992a.881.881,0,0,1,.88.88v8a.881.881,0,0,1-.88.88H2.788a.882.882,0,0,1-.881-.88V2.788a.882.882,0,0,1,.881-.881H6.915a.523.523,0,0,1,.406.2L8.726,4.045a2.435,2.435,0,0,0,1.922.947Z" transform="translate(0 0)" fill="#707070"/><rect width="7.506" height="2.922" transform="translate(8.323 9.86)" fill="#707070"/></g></g></g></svg>