<svg xmlns="http://www.w3.org/2000/svg" xmlns:xlink="http://www.w3.org/1999/xlink" width="20" height="20" viewBox="0 0 20 20"><defs><clipPath id="a"><rect width="19.742" height="17.775" transform="translate(0 0)" fill="none"/></clipPath><clipPath id="c"><rect width="20" height="20"/></clipPath></defs><g id="b" clip-path="url(#c)"><rect width="20" height="20" fill="rgba(255,255,255,0)"/><g transform="translate(0.129 1.113)" clip-path="url(#a)"><path d="M13.815,16.007l-.434-1.5H12.057l.535,1.853a.131.131,0,0,1,0,.109.146.146,0,0,1-.114.037H7.459a.258.258,0,0,1-.128-.023.2.2,0,0,1,.01-.12L7.877,14.5H6.553L6.119,16a1.336,1.336,0,0,0,1.34,1.77h5.016a1.361,1.361,0,0,0,1.34-1.768" fill="#707070"/><path d="M17.831,13.86H1.909A1.91,1.91,0,0,1,0,11.953V2.011A1.911,1.911,0,0,1,1.909.1h8.98V2.01H1.909l0,9.943H17.831l0-2.287H19.74v2.287a1.91,1.91,0,0,1-1.909,1.907" fill="#707070"/><path d="M17.534,5.519H15.4v-.2a2.439,2.439,0,0,1,.123-.843,1.855,1.855,0,0,1,.369-.591,10.89,10.89,0,0,1,1.1-.942q.454-.354.455-.648a.587.587,0,0,0-.182-.458.815.815,0,0,0-.554-.163.912.912,0,0,0-.66.252,1.431,1.431,0,0,0-.334.877l-2.18-.257A2.773,2.773,0,0,1,14.407.7,3.362,3.362,0,0,1,16.742,0,3.6,3.6,0,0,1,18.72.487a2.007,2.007,0,0,1,1.022,1.756,1.637,1.637,0,0,1-.264.878A4.478,4.478,0,0,1,18.4,4.154a2.8,2.8,0,0,0-.716.688,1.34,1.34,0,0,0-.149.677M15.326,6.654h2.286V8.575H15.326Z" fill="#707070"/></g></g></svg>