<svg xmlns="http://www.w3.org/2000/svg" xmlns:xlink="http://www.w3.org/1999/xlink" width="20" height="20" viewBox="0 0 20 20"><defs><clipPath id="b"><rect width="20" height="20"/></clipPath></defs><g id="a" clip-path="url(#b)"><rect width="20" height="20" fill="rgba(255,255,255,0)"/><path d="M10,13.051C4.581,13.051.36,7.331.184,7.089a.956.956,0,0,1,0-1.127C.36,5.72,4.581,0,10,0s9.639,5.72,9.816,5.963a.959.959,0,0,1,0,1.127c-.177.242-4.4,5.962-9.816,5.962M2.183,6.526C3.319,7.868,6.452,11.137,10,11.137s6.685-3.268,7.817-4.61C16.681,5.185,13.547,1.914,10,1.914S3.319,5.184,2.183,6.526" transform="translate(0 3)" fill="#707070"/><path d="M9.985,12.285A5.789,5.789,0,1,1,15.773,6.5a5.795,5.795,0,0,1-5.788,5.788m0-10.3A4.513,4.513,0,1,0,14.5,6.5,4.518,4.518,0,0,0,9.985,1.984" transform="translate(0.013 3.002)" fill="#707070"/><path d="M-1612.31-1653.476a2.693,2.693,0,0,1-2.689-2.69,2.692,2.692,0,0,1,2.689-2.689,2.665,2.665,0,0,1,1.181.272l-1.581,1.581,1.48,1.48,1.478-1.478a2.685,2.685,0,0,1,.132.835A2.693,2.693,0,0,1-1612.31-1653.476Z" transform="translate(1622.242 1665.702)" fill="#fabd24"/><path d="M-1612.31-1652.976a3.193,3.193,0,0,1-3.189-3.19,3.193,3.193,0,0,1,3.189-3.189,3.161,3.161,0,0,1,1.4.323l.629.308L-1612-1657l.772.772,1.7-1.7.253.775a3.185,3.185,0,0,1,.157.99A3.194,3.194,0,0,1-1612.31-1652.976Zm0-5.379a2.192,2.192,0,0,0-2.189,2.189,2.192,2.192,0,0,0,2.189,2.19,2.193,2.193,0,0,0,2.175-1.935l-1.1,1.1-2.187-2.187,1.341-1.341A2.222,2.222,0,0,0-1612.31-1658.356Z" transform="translate(1622.242 1665.702)" fill="rgba(0,0,0,0)"/><rect width="19.997" height="13.051" transform="translate(0 3)" fill="none"/></g></svg>