<svg xmlns="http://www.w3.org/2000/svg" xmlns:xlink="http://www.w3.org/1999/xlink" width="518.103" height="70.205" viewBox="0 0 518.103 70.205"><defs><linearGradient id="a" x1="0.5" y1="0.002" x2="0.5" y2="0.994" gradientUnits="objectBoundingBox"><stop offset="0" stop-color="#fff"/><stop offset="1" stop-color="#d8d9da"/></linearGradient><linearGradient id="b" x1="0.5" y1="0.997" x2="0.5" y2="0.502" gradientUnits="objectBoundingBox"><stop offset="0" stop-color="#4a3d7b"/><stop offset="1" stop-color="#5d4d96"/></linearGradient><linearGradient id="c" x1="0.5" y1="0.997" x2="0.5" y2="0.503" gradientUnits="objectBoundingBox"><stop offset="0" stop-color="#b48a20"/><stop offset="1" stop-color="#fabd24"/></linearGradient><linearGradient id="d" x1="0.5" y1="0.821" x2="0.5" y2="0.029" gradientUnits="objectBoundingBox"><stop offset="0" stop-color="#fff"/><stop offset="0.073" stop-color="#fff" stop-opacity="0.871"/><stop offset="0.216" stop-color="#fff" stop-opacity="0.643"/><stop offset="0.36" stop-color="#fff" stop-opacity="0.447"/><stop offset="0.5" stop-color="#fff" stop-opacity="0.286"/><stop offset="0.636" stop-color="#fff" stop-opacity="0.161"/><stop offset="0.767" stop-color="#fff" stop-opacity="0.071"/><stop offset="0.891" stop-color="#fff" stop-opacity="0.02"/><stop offset="1" stop-color="#fff" stop-opacity="0"/></linearGradient></defs><g transform="translate(-727.997 -15.897)"><g transform="translate(0 142)"><line y1="50" transform="translate(1036 -116)" fill="none" stroke="#fff" stroke-width="2" opacity="0.5"/><path d="M4.18-13.96V0H1.38V-13.96ZM21.88,0h-2.8L12.74-9.58V0H9.94V-13.98h2.8l6.34,9.6v-9.6h2.8ZM32.46.14a6.631,6.631,0,0,1-2.63-.5A4.318,4.318,0,0,1,27.98-1.8a3.792,3.792,0,0,1-.7-2.22h3a1.94,1.94,0,0,0,.61,1.36,2.161,2.161,0,0,0,1.51.5,2.323,2.323,0,0,0,1.54-.47,1.529,1.529,0,0,0,.56-1.23,1.421,1.421,0,0,0-.38-1.02,2.662,2.662,0,0,0-.95-.63,15.721,15.721,0,0,0-1.57-.51,16.815,16.815,0,0,1-2.21-.79,3.871,3.871,0,0,1-1.46-1.18,3.363,3.363,0,0,1-.61-2.11,3.773,3.773,0,0,1,.62-2.16,3.943,3.943,0,0,1,1.74-1.41,6.33,6.33,0,0,1,2.56-.49,5.554,5.554,0,0,1,3.51,1.05,3.893,3.893,0,0,1,1.49,2.93H34.16a1.6,1.6,0,0,0-.61-1.19,2.3,2.3,0,0,0-1.51-.47,1.944,1.944,0,0,0-1.31.42,1.518,1.518,0,0,0-.49,1.22,1.261,1.261,0,0,0,.37.93,2.822,2.822,0,0,0,.92.6q.55.23,1.55.53a16.283,16.283,0,0,1,2.22.8,3.987,3.987,0,0,1,1.48,1.2,3.333,3.333,0,0,1,.62,2.1,3.95,3.95,0,0,1-.58,2.08,4.1,4.1,0,0,1-1.7,1.53A5.8,5.8,0,0,1,32.46.14Zm19.86-14.1v2.26H48.6V0H45.8V-11.7H42.08v-2.26Zm13.6,11.3H60.36L59.44,0H56.5l5.02-13.98h3.26L69.8,0H66.84ZM65.16-4.9l-2.02-5.84L61.12-4.9ZM77.48-2.22h4.6V0h-7.4V-13.96h2.8Zm12.18,0h4.6V0h-7.4V-13.96h2.8Zm17.94-.44h-5.56L101.12,0H98.18l5.02-13.98h3.26L111.48,0h-2.96Zm-.76-2.24-2.02-5.84L102.8-4.9Zm19.02-9.06v2.26h-3.72V0h-2.8V-11.7h-3.72v-2.26Zm7.84,0V0h-2.8V-13.96ZM145.94.14a7.233,7.233,0,0,1-3.6-.92,6.868,6.868,0,0,1-2.6-2.55,7.133,7.133,0,0,1-.96-3.69,7.1,7.1,0,0,1,.96-3.67,6.868,6.868,0,0,1,2.6-2.55,7.233,7.233,0,0,1,3.6-.92,7.217,7.217,0,0,1,3.61.92,6.816,6.816,0,0,1,2.58,2.55,7.153,7.153,0,0,1,.95,3.67,7.192,7.192,0,0,1-.95,3.69,6.8,6.8,0,0,1-2.59,2.55A7.233,7.233,0,0,1,145.94.14Zm0-2.5a4.265,4.265,0,0,0,2.22-.57,3.907,3.907,0,0,0,1.5-1.63,5.349,5.349,0,0,0,.54-2.46,5.287,5.287,0,0,0-.54-2.45,3.854,3.854,0,0,0-1.5-1.61,4.325,4.325,0,0,0-2.22-.56,4.379,4.379,0,0,0-2.23.56,3.835,3.835,0,0,0-1.51,1.61,5.287,5.287,0,0,0-.54,2.45,5.349,5.349,0,0,0,.54,2.46,3.887,3.887,0,0,0,1.51,1.63A4.319,4.319,0,0,0,145.94-2.36ZM170.1,0h-2.8l-6.34-9.58V0h-2.8V-13.98h2.8l6.34,9.6v-9.6h2.8ZM6.26,10.04a8.338,8.338,0,0,1,3.87.86,6.144,6.144,0,0,1,2.58,2.45,7.3,7.3,0,0,1,.91,3.69,7.188,7.188,0,0,1-.91,3.67,6.18,6.18,0,0,1-2.58,2.43A8.338,8.338,0,0,1,6.26,24H1.38V10.04Zm-.1,11.58a4.6,4.6,0,0,0,3.4-1.2,4.57,4.57,0,0,0,1.2-3.38,4.676,4.676,0,0,0-1.2-3.41,4.533,4.533,0,0,0-3.4-1.23H4.18v9.22ZM21.48,10.04v8.64a2.962,2.962,0,0,0,.74,2.17,2.79,2.79,0,0,0,2.08.75,2.818,2.818,0,0,0,2.1-.75,2.962,2.962,0,0,0,.74-2.17V10.04h2.82v8.62a5.565,5.565,0,0,1-.77,3.01,4.884,4.884,0,0,1-2.06,1.85,6.539,6.539,0,0,1-2.87.62,6.365,6.365,0,0,1-2.83-.62,4.72,4.72,0,0,1-2.01-1.85,5.74,5.74,0,0,1-.74-3.01V10.04Zm26.76,14.1a6.631,6.631,0,0,1-2.63-.5,4.318,4.318,0,0,1-1.85-1.44,3.792,3.792,0,0,1-.7-2.22h3a1.94,1.94,0,0,0,.61,1.36,2.161,2.161,0,0,0,1.51.5,2.323,2.323,0,0,0,1.54-.47,1.529,1.529,0,0,0,.56-1.23,1.421,1.421,0,0,0-.38-1.02,2.663,2.663,0,0,0-.95-.63,15.721,15.721,0,0,0-1.57-.51,16.815,16.815,0,0,1-2.21-.79,3.871,3.871,0,0,1-1.46-1.18,3.363,3.363,0,0,1-.61-2.11,3.773,3.773,0,0,1,.62-2.16,3.943,3.943,0,0,1,1.74-1.41,6.33,6.33,0,0,1,2.56-.49,5.554,5.554,0,0,1,3.51,1.05,3.893,3.893,0,0,1,1.49,2.93H49.94a1.6,1.6,0,0,0-.61-1.19,2.3,2.3,0,0,0-1.51-.47,1.944,1.944,0,0,0-1.31.42,1.518,1.518,0,0,0-.49,1.22,1.261,1.261,0,0,0,.37.93,2.822,2.822,0,0,0,.92.6q.55.23,1.55.53a16.284,16.284,0,0,1,2.22.8,3.987,3.987,0,0,1,1.48,1.2,3.333,3.333,0,0,1,.62,2.1,3.95,3.95,0,0,1-.58,2.08,4.1,4.1,0,0,1-1.7,1.53A5.8,5.8,0,0,1,48.24,24.14ZM61.4,10.04V24H58.6V10.04Zm15.26,0V12.3H72.94V24h-2.8V12.3H66.42V10.04ZM84.5,12.3v3.5h4.7v2.22H84.5v3.7h5.3V24H81.7V10.02h8.1V12.3Z" transform="translate(1076 -96)" fill="#fff"/></g><circle cx="17" cy="17" r="17" transform="translate(746 34)" fill="#4a3d7b"/><g transform="translate(632.638 -328.139)"><path d="M123.517,372.276a9.711,9.711,0,0,1,10.568-2.156,9.575,9.575,0,0,1,3.234,2.156l2.3,2.227,4.457-4.527-2.229-2.23a15.712,15.712,0,0,0-5.354-3.555,16.137,16.137,0,0,0-12.149,0,15.82,15.82,0,0,0-5.357,3.555,15.5,15.5,0,0,0-3.521,5.321,16.653,16.653,0,0,0,0,12.147,15.456,15.456,0,0,0,3.521,5.32,15.841,15.841,0,0,0,5.357,3.557,16.124,16.124,0,0,0,12.149,0,15.733,15.733,0,0,0,5.354-3.557l2.229-2.23-4.457-4.526-2.3,2.229a8.786,8.786,0,0,1-3.161,2.153,9.922,9.922,0,0,1-3.737.719,9.417,9.417,0,0,1-6.9-2.872,9.574,9.574,0,0,1-2.154-3.238,9.683,9.683,0,0,1,0-7.328A8.8,8.8,0,0,1,123.517,372.276Z" fill="url(#a)"/><g fill="url(#b)"><path d="M 135.8808135986328 413.2416687011719 C 134.5994415283203 413.2416687011719 133.4391632080078 412.5297546386719 132.9248504638672 411.4280090332031 L 132.9219665527344 411.4217834472656 L 132.9191589355469 411.4155578613281 L 132.462158203125 410.4005126953125 L 132.4348907470703 410.3399963378906 L 132.4265747070312 410.3121643066406 C 132.3845367431641 410.2308959960938 132.2901458740234 410.1929626464844 132.1310119628906 410.1929626464844 C 132.1107940673828 410.1929626464844 132.0895538330078 410.1936340332031 132.06787109375 410.1950073242188 L 132.0651397705078 410.1788330078125 C 131.5061340332031 410.2062377929688 130.985595703125 410.2200317382812 130.4758911132812 410.2210083007812 L 130.0736999511719 410.2217712402344 L 129.7829742431641 409.94384765625 L 123.7389755249023 404.1658325195312 L 122.9829254150391 403.4430541992188 L 123.7389144897461 402.72021484375 L 129.4739990234375 397.2366027832031 L 129.4739990234375 396.656005859375 L 130.4739990234375 396.656005859375 C 135.150146484375 396.656005859375 139.5466918945312 394.8345947265625 142.8537445068359 391.5272827148438 C 146.1607513427734 388.2200622558594 147.9819946289062 383.8233032226562 147.9819946289062 379.1470031738281 C 147.9819946289062 374.4697570800781 146.1608123779297 370.0727844238281 142.8539123535156 366.7659912109375 C 139.5469360351562 363.4591674804688 135.1496276855469 361.6380004882812 130.4720001220703 361.6380004882812 L 129.4718322753906 361.6380004882812 L 129.4720001220703 360.6378173828125 L 129.4739990234375 349.0728149414062 L 129.4741668701172 348.072998046875 L 130.4739990234375 348.072998046875 C 130.9880828857422 348.072998046875 131.5039978027344 348.0859375 132.0093536376953 348.1114807128906 L 132.0138092041016 348.0850524902344 C 132.0356292724609 348.08642578125 132.0569152832031 348.087158203125 132.0771026611328 348.087158203125 C 132.1783447265625 348.0871276855469 132.3177185058594 348.0741271972656 132.3741455078125 347.9642944335938 L 132.3819885253906 347.9382629394531 L 132.407958984375 347.8800964355469 L 132.8609771728516 346.8660888671875 L 132.8652038574219 346.8566284179688 L 132.86962890625 346.8472595214844 C 133.3884735107422 345.7476501464844 134.548583984375 345.0371398925781 135.8251495361328 345.0371398925781 C 136.1068115234375 345.0371398925781 136.3833618164062 345.0733337402344 136.6471405029297 345.1446838378906 L 142.0727386474609 346.5980529785156 C 143.5554962158203 346.9926452636719 144.6194915771484 348.4705200195312 144.4934387207031 349.9621887207031 L 144.4925994873047 349.9722595214844 L 144.4915313720703 349.9822998046875 L 144.3755340576172 351.0883178710938 L 144.3694915771484 351.14599609375 L 144.3649291992188 351.1663818359375 C 144.3615570068359 351.259521484375 144.425048828125 351.3438415527344 144.5585021972656 351.4233703613281 C 145.5229797363281 351.9114685058594 146.4550170898438 352.4461669921875 147.3290710449219 353.012939453125 L 147.333251953125 353.0156555175781 L 147.3374328613281 353.0184326171875 C 147.4408111572266 353.0869445800781 147.5324401855469 353.1231384277344 147.6024322509766 353.1231384277344 C 147.6527862548828 353.1231384277344 147.6930236816406 353.1025085449219 147.7096862792969 353.0924072265625 L 147.7281646728516 353.0750427246094 L 147.7795867919922 353.0377197265625 L 148.6805877685547 352.3837280273438 L 148.6886291503906 352.3778686523438 L 148.6967926025391 352.3721923828125 C 149.2082061767578 352.0162963867188 149.82080078125 351.8281555175781 150.4683685302734 351.8281555175781 C 151.3564300537109 351.8281555175781 152.2141723632812 352.1770629882812 152.8216094970703 352.7854309082031 L 156.794189453125 356.7590026855469 C 157.88037109375 357.8405151367188 158.0623626708984 359.6522827148438 157.2069244384766 360.8820495605469 L 157.2017517089844 360.8894958496094 L 157.1964416503906 360.8968200683594 L 156.54443359375 361.798828125 L 156.5101165771484 361.8463134765625 L 156.4957885742188 361.8619079589844 C 156.4481353759766 361.9386596679688 156.4685363769531 362.0282592773438 156.4908447265625 362.08740234375 C 157.0713653564453 362.9726867675781 157.6136474609375 363.9110717773438 158.1471710205078 364.9533386230469 C 158.2725372314453 365.2012634277344 158.3815002441406 365.2012634277344 158.4280242919922 365.2012634277344 C 158.4290924072266 365.2012634277344 158.4300994873047 365.2012634277344 158.4310302734375 365.2012634277344 L 158.4535675048828 365.1960144042969 L 158.5148010253906 365.1895446777344 L 159.6207885742188 365.0725402832031 L 159.6322479248047 365.0713195800781 L 159.6437225341797 365.0703735351562 C 159.7248992919922 365.0636901855469 159.807373046875 365.0602722167969 159.8888397216797 365.0602722167969 C 161.3159790039062 365.0602722167969 162.6278991699219 366.080810546875 163.00830078125 367.4868469238281 L 164.4610290527344 372.9175720214844 C 164.8613891601562 374.3973388671875 164.1134948730469 376.0581665039062 162.7576141357422 376.6958923339844 L 162.7483062744141 376.7002868652344 L 162.7388916015625 376.7044677734375 L 161.7218933105469 377.157470703125 L 161.6642761230469 377.1831359863281 L 161.6380615234375 377.1910400390625 C 161.5941009521484 377.2127685546875 161.5029907226562 377.2778625488281 161.5208435058594 377.5493469238281 L 161.5048370361328 377.5520324707031 C 161.5572204589844 378.5925903320312 161.5579376220703 379.6439514160156 161.5070343017578 380.6802673339844 L 161.5350189208984 380.6848449707031 C 161.5250244140625 380.8438110351562 161.5498199462891 380.9538269042969 161.6087341308594 381.0118408203125 C 161.6294555664062 381.0322265625 161.6507568359375 381.0443725585938 161.6589508056641 381.0486450195312 C 161.6641387939453 381.05078125 161.6659545898438 381.0516357421875 161.6654663085938 381.0516357421875 C 161.6633453369141 381.0516357421875 161.6174621582031 381.0352172851562 161.6174621582031 381.0352172851562 L 161.3300018310547 381.9930114746094 L 161.736572265625 381.0793762207031 L 162.7545623779297 381.5324096679688 L 162.7650756835938 381.5370788574219 L 162.7754821777344 381.5419921875 C 163.4587860107422 381.8651123046875 164.0052185058594 382.4454345703125 164.3140869140625 383.1761474609375 C 164.6054992675781 383.8655090332031 164.6632232666016 384.6268920898438 164.4766235351562 385.3199768066406 L 163.0229644775391 390.7477111816406 C 162.8481750488281 391.4012756347656 162.449462890625 392.0063781738281 161.9003295898438 392.4512329101562 C 161.3232574462891 392.918701171875 160.6162414550781 393.1761474609375 159.9095001220703 393.1761474609375 C 159.8255462646484 393.1761474609375 159.7406005859375 393.1725158691406 159.656982421875 393.1653747558594 L 159.6482086181641 393.1646423339844 L 159.6394653320312 393.1637268066406 L 158.5334625244141 393.0497131347656 L 158.4744567871094 393.0436401367188 L 158.4545593261719 393.0391845703125 C 158.4541931152344 393.0391540527344 158.4538116455078 393.0391540527344 158.4534301757812 393.0391540527344 C 158.409912109375 393.0391540527344 158.3093414306641 393.0391845703125 158.1929016113281 393.2389221191406 C 157.6972198486328 394.2146301269531 157.1637573242188 395.1444702148438 156.6070709228516 396.0030517578125 L 156.5740661621094 395.9816589355469 L 156.6035919189453 396.0108642578125 C 156.4956817626953 396.173095703125 156.4708404541016 396.2953186035156 156.5279083251953 396.3840026855469 L 156.5457916259766 396.4030456542969 L 156.5826721191406 396.4537353515625 L 157.2366638183594 397.3527526855469 L 157.2432556152344 397.36181640625 L 157.2496490478516 397.3710327148438 C 157.6806030273438 397.9922485351562 157.8637237548828 398.7687377929688 157.7653045654297 399.5574645996094 C 157.6726989746094 400.2996826171875 157.3425140380859 400.9880065917969 156.8356018066406 401.49560546875 L 152.8631134033203 405.4681091308594 C 152.2545166015625 406.0758361816406 151.3965759277344 406.4241027832031 150.5087890625 406.4241027832031 C 149.8616485595703 406.4241027832031 149.2492828369141 406.2364807128906 148.7378234863281 405.8815307617188 L 148.72900390625 405.8753967285156 L 148.7203216552734 405.8690795898438 L 147.8213195800781 405.2160949707031 L 147.7755126953125 405.182861328125 L 147.7620239257812 405.1705017089844 C 147.7449645996094 405.1604614257812 147.7034454345703 405.1398315429688 147.6508178710938 405.1398315429688 C 147.6159210205078 405.1398315429688 147.576171875 405.1482849121094 147.5322113037109 405.1650085449219 C 146.6493682861328 405.7430114746094 145.7063903808594 406.28759765625 144.6526184082031 406.828125 C 144.4927978515625 406.9122314453125 144.4170532226562 407.0024108886719 144.4215393066406 407.1034240722656 L 144.4274444580078 407.1289367675781 L 144.433837890625 407.1915283203125 L 144.5468444824219 408.2995300292969 L 144.5477752685547 408.3086853027344 L 144.5485534667969 408.3179016113281 C 144.6114501953125 409.0721740722656 144.3823394775391 409.8362731933594 143.9033966064453 410.4694213867188 C 143.4532012939453 411.0645446777344 142.8236389160156 411.4953308105469 142.1306610107422 411.6824340820312 L 136.7004241943359 413.1350402832031 C 136.4388885498047 413.2055969238281 136.1624450683594 413.2416687011719 135.8808135986328 413.2416687011719 Z" stroke="none"/><path d="M 135.8808135986328 412.2416687011719 C 136.0718841552734 412.2416687011719 136.2610626220703 412.2178344726562 136.4420013427734 412.1690063476562 L 141.8699951171875 410.7170104980469 C 142.8329925537109 410.4570007324219 143.6419982910156 409.4800109863281 143.552001953125 408.4010009765625 L 143.4389953613281 407.2929992675781 C 143.4389953613281 407.2929992675781 143.2409973144531 406.43701171875 144.1929931640625 405.9400024414062 C 145.1679992675781 405.4400024414062 146.125 404.8949890136719 147.052001953125 404.2839965820312 C 147.8540649414062 403.8988952636719 148.4089965820312 404.4070129394531 148.4089965820312 404.4070129394531 L 149.3079986572266 405.0599975585938 C 150.1969909667969 405.677001953125 151.4510040283203 405.4649963378906 152.156005859375 404.760986328125 L 156.1280059814453 400.7890014648438 C 156.8320007324219 400.0840148925781 157.0440063476562 398.8290100097656 156.4279937744141 397.9410095214844 L 155.7740020751953 397.0419921875 C 155.7740020751953 397.0419921875 155.1549987792969 396.3829956054688 155.77099609375 395.4570007324219 L 155.7680053710938 395.4590148925781 C 156.3359985351562 394.5830078125 156.8470001220703 393.6820068359375 157.3119964599609 392.7650146484375 C 157.8130035400391 391.8700256347656 158.6360015869141 392.0550231933594 158.6360015869141 392.0549926757812 L 159.7420043945312 392.1690063476562 C 160.8197937011719 392.2607421875 161.8000030517578 391.4500427246094 162.0570068359375 390.489013671875 L 163.5110015869141 385.0599975585938 C 163.7700042724609 384.0979919433594 163.3249969482422 382.9079895019531 162.3480072021484 382.4460144042969 L 161.3300018310547 381.9930114746094 C 161.3300018310547 381.9930114746094 160.4669952392578 381.7340087890625 160.5370025634766 380.6220092773438 L 160.5019989013672 380.7529907226562 C 160.5590057373047 379.6820068359375 160.5590057373047 378.6119995117188 160.5030059814453 377.5419921875 L 160.5229949951172 377.614990234375 C 160.4499969482422 376.5050048828125 161.3150024414062 376.2439880371094 161.3150024414062 376.2439880371094 L 162.3320007324219 375.7909851074219 C 163.3099975585938 375.3309936523438 163.7550048828125 374.1369934082031 163.4949951171875 373.1759948730469 L 162.0429992675781 367.7479858398438 C 161.7830047607422 366.7869873046875 160.8040466308594 365.9778137207031 159.7259979248047 366.0669860839844 L 158.6199951171875 366.1839904785156 C 158.6199798583984 366.1840209960938 157.7510223388672 366.3860473632812 157.2570037841797 365.4089965820312 C 156.7610015869141 364.4400024414062 156.2180023193359 363.489013671875 155.6100006103516 362.5679931640625 C 155.2270050048828 361.7650146484375 155.7339935302734 361.2130126953125 155.7339935302734 361.2130126953125 L 156.3860015869141 360.3110046386719 C 157.0030059814453 359.4240112304688 156.7920074462891 358.1679992675781 156.0870056152344 357.4660034179688 L 152.1139984130859 353.4920043945312 C 151.4100036621094 352.7869567871094 150.1559906005859 352.5749816894531 149.2680053710938 353.1929931640625 L 148.3670043945312 353.8469848632812 C 148.3670043945312 353.8469848632812 147.7100219726562 354.4649963378906 146.7850036621094 353.8519897460938 C 145.906005859375 353.2820129394531 145.0030059814453 352.7680053710938 144.0820007324219 352.3030090332031 C 143.197998046875 351.8009948730469 143.3809967041016 350.9840087890625 143.3809967041016 350.9840087890625 L 143.4969940185547 349.8779907226562 C 143.5879974365234 348.8009948730469 142.7760009765625 347.8200073242188 141.8139953613281 347.5639953613281 L 136.3860015869141 346.1099853515625 C 135.4251098632812 345.8499755859375 134.2350006103516 346.2969970703125 133.7740020751953 347.2739868164062 L 133.3209991455078 348.2879943847656 C 133.3209838867188 348.2879943847656 133.06005859375 349.1542663574219 131.9499969482422 349.0830078125 L 132.0690002441406 349.1159973144531 C 131.5370025634766 349.0870056152344 131.0059967041016 349.072998046875 130.4739990234375 349.072998046875 L 130.4720001220703 360.6380004882812 C 140.6959991455078 360.6380004882812 148.9819946289062 368.9240112304688 148.9819946289062 379.1470031738281 C 148.9819946289062 389.3680114746094 140.6950073242188 397.656005859375 130.4739990234375 397.656005859375 L 130.4739990234375 397.6640014648438 L 124.4299926757812 403.4429931640625 L 130.4739990234375 409.2210083007812 C 131.0079956054688 409.2200012207031 131.5429992675781 409.2040100097656 132.0769958496094 409.177001953125 L 132.0050048828125 409.1969909667969 C 133.115966796875 409.1275024414062 133.3739929199219 409.9899597167969 133.3739929199219 409.989990234375 L 133.8309936523438 411.0050048828125 C 134.2018585205078 411.7994995117188 135.0581665039062 412.2416687011719 135.8808135986328 412.2416687011719 M 135.8808135986328 414.2416687011719 C 134.2126312255859 414.2416687011719 132.6966705322266 413.3032531738281 132.0187225341797 411.8509826660156 L 132.0073089599609 411.8261108398438 L 131.7231140136719 411.1948852539062 C 131.2931976318359 411.2116394042969 130.8823852539062 411.2202453613281 130.477783203125 411.2210083007812 L 129.6733856201172 411.2225341796875 L 121.5358657836914 403.443115234375 L 128.4739990234375 396.8091735839844 L 128.4739990234375 395.656005859375 L 130.4739990234375 395.656005859375 C 134.8830261230469 395.656005859375 139.0284423828125 393.9386291503906 142.1466064453125 390.8202209472656 C 145.2647552490234 387.7018432617188 146.9819946289062 383.5562133789062 146.9819946289062 379.1470031738281 C 146.9819946289062 374.7368774414062 145.2648315429688 370.5910034179688 142.1468048095703 367.4731140136719 C 139.0287170410156 364.3551330566406 134.8825225830078 362.6380004882812 130.4720001220703 362.6380004882812 L 128.4716491699219 362.6380004882812 L 128.4743499755859 347.072998046875 L 130.4739990234375 347.072998046875 C 130.87109375 347.072998046875 131.2693176269531 347.0804748535156 131.6633148193359 347.0953063964844 L 131.9652404785156 346.4205322265625 C 132.6484222412109 344.9726867675781 134.1635131835938 344.0371398925781 135.8251495361328 344.0371398925781 C 136.1949768066406 344.0371398925781 136.5593872070312 344.0849914550781 136.9082641601562 344.1793823242188 L 142.3314971923828 345.6321105957031 C 143.2362823486328 345.8728942871094 144.0589599609375 346.4320678710938 144.6448364257812 347.2057800292969 C 145.2743225097656 348.0370788574219 145.5744323730469 349.0458984375 145.4898986816406 350.04638671875 L 145.486083984375 350.0866088867188 L 145.4174499511719 350.740966796875 C 146.152587890625 351.1262512207031 146.8673706054688 351.537353515625 147.5509643554688 351.9679870605469 L 148.1255950927734 351.5513916015625 C 148.8054656982422 351.0782470703125 149.6155853271484 350.8281555175781 150.4683685302734 350.8281555175781 C 151.6199493408203 350.8281555175781 152.7355804443359 351.2840270996094 153.5292358398438 352.0788269042969 L 157.5013885498047 356.0519714355469 C 158.1642303466797 356.7119750976562 158.5970611572266 357.6081848144531 158.7169647216797 358.5722961425781 C 158.8455505371094 359.6062927246094 158.600830078125 360.6293640136719 158.0278625488281 361.4530639648438 L 158.0068817138672 361.4826354980469 L 157.6276702880859 362.0072631835938 C 158.0516357421875 362.681884765625 158.4572448730469 363.3888854980469 158.8559417724609 364.1478576660156 L 159.5613861083984 364.0737915039062 C 159.6698150634766 364.0648193359375 159.7799987792969 364.0602722167969 159.8888397216797 364.0602722167969 C 161.7594909667969 364.0602722167969 163.4773712158203 365.3915405273438 163.9736022949219 367.2256774902344 L 163.9750671386719 367.2311706542969 L 165.4270629882812 372.6591796875 C 165.6708374023438 373.5652160644531 165.5974578857422 374.5557861328125 165.2202911376953 375.44921875 C 164.8148956298828 376.4095153808594 164.0914611816406 377.1736145019531 163.1832427978516 377.6007995605469 L 163.1457824707031 377.6179504394531 L 162.5210113525391 377.896240234375 C 162.5519409179688 378.7083129882812 162.5525360107422 379.5250244140625 162.5227661132812 380.3346862792969 L 163.2029418945312 380.6379699707031 C 165.0082397460938 381.4916076660156 165.9709320068359 383.6161804199219 165.4422302246094 385.5799255371094 L 163.9889221191406 391.0064392089844 C 163.4978332519531 392.8427734375 161.7820892333984 394.1761474609375 159.9095001220703 394.1761474609375 C 159.7972564697266 394.1761474609375 159.6836700439453 394.1712951660156 159.5719146728516 394.1617431640625 L 159.5369262695312 394.1584777832031 L 158.8785247802734 394.0906066894531 C 158.4887084960938 394.8332824707031 158.077880859375 395.5481872558594 157.6523590087891 396.2242736816406 L 158.0713043212891 396.801025390625 C 159.2083435058594 398.4400939941406 158.9813079833984 400.7621154785156 157.543212890625 402.2022399902344 L 153.5702209472656 406.1752014160156 C 152.7750396728516 406.9692687988281 151.6595458984375 407.4241027832031 150.5087890625 407.4241027832031 C 149.6568908691406 407.4241027832031 148.8473205566406 407.1747741699219 148.1676483154297 406.7030334472656 L 148.1326293945312 406.6781921386719 L 147.6131591796875 406.3008728027344 C 146.9419860839844 406.7220458984375 146.2352752685547 407.1275024414062 145.4734039306641 407.528564453125 L 145.5450897216797 408.2347717285156 C 145.710693359375 410.2204895019531 144.3548736572266 412.1177062988281 142.3913269042969 412.6478576660156 L 136.9588317871094 414.10107421875 C 136.6145172119141 414.1939697265625 136.2504119873047 414.2416687011719 135.8808135986328 414.2416687011719 Z" stroke="none" fill="#4a3d7b"/></g><g fill="url(#c)"><path d="M 125.1196212768555 413.2414855957031 C 124.838493347168 413.2414855957031 124.5624008178711 413.2055358886719 124.2990264892578 413.1346130371094 L 118.873046875 411.6798706054688 C 117.389762878418 411.2851867675781 116.3262329101562 409.8073425292969 116.4536209106445 408.31591796875 L 116.4544067382812 408.3067321777344 L 116.4553527832031 408.2975769042969 L 116.5703659057617 407.1915893554688 L 116.576416015625 407.1334533691406 L 116.5810699462891 407.1126708984375 C 116.5844650268555 407.0193786621094 116.5208053588867 406.9349670410156 116.3869705200195 406.8553466796875 C 115.4163589477539 406.3626403808594 114.4850006103516 405.8289794921875 113.6182556152344 405.2688903808594 L 113.6124649047852 405.26513671875 L 113.6067276000977 405.2613220214844 C 113.5047378540039 405.1933898925781 113.41064453125 405.1559753417969 113.3417739868164 405.1559753417969 C 113.2919235229492 405.1559753417969 113.2519607543945 405.1764831542969 113.2353744506836 405.1865234375 L 113.216796875 405.2040100097656 L 113.1652679443359 405.2413940429688 L 112.265266418457 405.8944091796875 L 112.2572021484375 405.9002380371094 L 112.2490463256836 405.9059143066406 C 111.7372817993164 406.2619018554688 111.1241912841797 406.4500732421875 110.4760513305664 406.4500732421875 C 109.5874252319336 406.4500732421875 108.7302627563477 406.10107421875 108.1243743896484 405.4925537109375 L 104.151985168457 401.5212097167969 C 103.6446762084961 401.0131530761719 103.3147125244141 400.3250122070312 103.222297668457 399.5829772949219 C 103.1239929199219 398.7937316894531 103.3078155517578 398.0167846679688 103.7398910522461 397.3952331542969 L 103.7453079223633 397.387451171875 L 103.750862121582 397.3797607421875 L 104.4028625488281 396.478759765625 L 104.4370346069336 396.4315490722656 L 104.451057434082 396.416259765625 C 104.4988250732422 396.3392333984375 104.4788208007812 396.2489624023438 104.4564971923828 396.1888732910156 C 103.8795700073242 395.3125 103.3368530273438 394.3746948242188 102.7990264892578 393.3249816894531 C 102.673225402832 393.0767211914062 102.5642929077148 393.0767211914062 102.5177841186523 393.0767211914062 C 102.5168151855469 393.0767211914062 102.5158996582031 393.0767211914062 102.5150375366211 393.0767211914062 L 102.4925537109375 393.0819702148438 L 102.4311904907227 393.0884399414062 L 101.3252029418945 393.2054443359375 L 101.3137512207031 393.2066650390625 L 101.3022766113281 393.2076110839844 C 101.2211074829102 393.2142944335938 101.1386337280273 393.2177124023438 101.0571517944336 393.2177124023438 C 100.3498764038086 393.2177124023438 99.64214324951172 392.9606323242188 99.06434631347656 392.4938354492188 C 98.51385498046875 392.0491333007812 98.11391448974609 391.4437561035156 97.93820190429688 390.7892761230469 L 96.48499298095703 385.3595581054688 C 96.08591461181641 383.8802795410156 96.83416748046875 382.2202453613281 98.18897247314453 381.582275390625 L 98.19832611083984 381.577880859375 L 98.20777130126953 381.5736694335938 L 99.22377777099609 381.1206665039062 L 99.28156280517578 381.0949096679688 L 99.30802154541016 381.0869140625 C 99.35215759277344 381.0651550292969 99.44375610351562 380.9998474121094 99.42610168457031 380.7277221679688 L 99.44114685058594 380.7253112792969 C 99.38910675048828 379.6904296875 99.38874053955078 378.6390075683594 99.44000244140625 377.5971374511719 L 99.41102600097656 377.59228515625 C 99.42113494873047 377.4340209960938 99.39649200439453 377.3244934082031 99.33778381347656 377.2668151855469 C 99.31692504882812 377.246337890625 99.29541778564453 377.2341003417969 99.28713226318359 377.2297668457031 C 99.2818603515625 377.2276306152344 99.280029296875 377.2267456054688 99.28052520751953 377.2267456054688 C 99.28267669677734 377.2267456054688 99.32815551757812 377.2429809570312 99.32815551757812 377.2429809570312 L 99.61499786376953 376.2850036621094 L 99.20885467529297 377.1988220214844 L 98.19186401367188 376.746826171875 L 98.18056488037109 376.7417907714844 L 98.16939544677734 376.7365112304688 C 97.48717498779297 376.412841796875 96.94140625 375.8325805664062 96.63262176513672 375.1025695800781 C 96.34139251708984 374.4140319824219 96.28286743164062 373.6531677246094 96.46780395507812 372.9601440429688 L 97.923095703125 367.5301513671875 C 98.09797668457031 366.8761901855469 98.49746704101562 366.2706298828125 99.04783630371094 365.8255615234375 C 99.62544250488281 365.3584289550781 100.3328628540039 365.1011657714844 101.0397872924805 365.1011657714844 C 101.1220626831055 365.1011657714844 101.2053375244141 365.1046447753906 101.2872848510742 365.1114807128906 L 101.2973175048828 365.1123046875 L 101.3073272705078 365.1133422851562 L 102.4143142700195 365.2283325195312 L 102.4728927612305 365.2344360351562 L 102.4926223754883 365.2388610839844 C 102.4930877685547 365.2388610839844 102.4935760498047 365.2388916015625 102.4940719604492 365.2388916015625 C 102.5376358032227 365.2388610839844 102.6381912231445 365.2388610839844 102.7540817260742 365.0410766601562 C 103.245719909668 364.0692749023438 103.7788925170898 363.1387023925781 104.3389434814453 362.2749633789062 L 104.3766174316406 362.2993774414062 L 104.3430862426758 362.26611328125 C 104.4304275512695 362.1351928710938 104.4635925292969 362.0287170410156 104.4416961669922 361.9496765136719 C 104.4338150024414 361.9212646484375 104.4211730957031 361.8996276855469 104.4161071777344 361.8916625976562 C 104.4127960205078 361.8873901367188 104.4115676879883 361.8856201171875 104.4117889404297 361.8856201171875 C 104.4127883911133 361.8856201171875 104.4446411132812 361.9232177734375 104.4446411132812 361.9232177734375 L 105.1729965209961 361.2380065917969 L 104.3644561767578 361.8264465332031 L 103.7094573974609 360.9264526367188 L 103.70263671875 360.9170837402344 L 103.6960220336914 360.9075622558594 C 103.265266418457 360.2858581542969 103.0824508666992 359.5092163085938 103.1812515258789 358.7206726074219 C 103.2741928100586 357.9789733886719 103.6045227050781 357.2909851074219 104.1113967895508 356.7833862304688 L 108.0849838256836 352.8108215332031 C 108.6928558349609 352.2029418945312 109.5509414672852 351.854248046875 110.4391555786133 351.854248046875 C 111.0859146118164 351.854248046875 111.6977767944336 352.0418395996094 112.2085952758789 352.3967590332031 L 112.2172927856445 352.4028015136719 L 112.2258605957031 352.4090270996094 L 113.125862121582 353.0630493164062 L 113.1719055175781 353.0964965820312 L 113.1853332519531 353.1088256835938 C 113.2022399902344 353.1186828613281 113.2429733276367 353.1387634277344 113.2947158813477 353.1387634277344 C 113.3298873901367 353.1387634277344 113.3700180053711 353.1301879882812 113.4144592285156 353.1131896972656 C 114.3007888793945 352.5328674316406 115.2433090209961 351.9889831542969 116.2926712036133 351.4522399902344 C 116.4226379394531 351.3835754394531 116.4985046386719 351.3091735839844 116.5181732177734 351.2310791015625 C 116.5254211425781 351.2023010253906 116.5253067016602 351.1775207519531 116.5249252319336 351.1681823730469 C 116.5242538452148 351.1631774902344 116.5240707397461 351.1611022949219 116.5242233276367 351.1611022949219 C 116.5249710083008 351.1611022949219 116.5337219238281 351.2103271484375 116.5337219238281 351.2103271484375 L 117.5080032348633 350.9849853515625 L 116.5132675170898 351.0874328613281 L 116.3992538452148 349.9804382324219 L 116.398307800293 349.9712524414062 L 116.3975372314453 349.9620361328125 C 116.3338928222656 349.2073669433594 116.5629119873047 348.4429016113281 117.0424270629883 347.8094482421875 C 117.4929656982422 347.2142639160156 118.1229248046875 346.7837829589844 118.8162612915039 346.5973205566406 L 124.2461242675781 345.14208984375 C 124.5083465576172 345.0718383789062 124.7832870483398 345.0361938476562 125.0633316040039 345.0361938476562 C 126.3454971313477 345.0361938476562 127.5068130493164 345.7483825683594 128.0219268798828 346.8505859375 L 128.0250244140625 346.8572082519531 L 128.0280151367188 346.8638610839844 L 128.4840240478516 347.8778686523438 L 128.5109710693359 347.9377746582031 L 128.5191955566406 347.9651794433594 C 128.5616607666016 348.0475158691406 128.6566314697266 348.0859375 128.816650390625 348.0859375 C 128.8366546630859 348.0859375 128.8576202392578 348.0852661132812 128.8789520263672 348.0839233398438 L 128.8818969726562 348.1007995605469 C 129.3942260742188 348.0733947753906 129.9288482666016 348.0590209960938 130.47216796875 348.0580139160156 L 130.8744201660156 348.0572814941406 L 131.1651458740234 348.3352966308594 L 137.2071380615234 354.11328125 L 137.962890625 354.8359985351562 L 137.2071380615234 355.5587158203125 L 131.4739990234375 361.0413818359375 L 131.4739990234375 361.6240844726562 L 130.4739074707031 361.6239929199219 C 125.7958755493164 361.6239929199219 121.3994674682617 363.4451904296875 118.0927658081055 366.7520751953125 C 114.7860717773438 370.0589599609375 112.9649963378906 374.4555358886719 112.9649963378906 379.1319885253906 C 112.9649963378906 383.8092651367188 114.7861557006836 388.2064514160156 118.0930023193359 391.5135498046875 C 121.3998947143555 394.8206787109375 125.7968826293945 396.6419982910156 130.4739990234375 396.6419982910156 L 131.4739990234375 396.6419982910156 L 131.4739990234375 397.6419982910156 L 131.4739990234375 397.656005859375 L 131.4739990234375 397.6640014648438 L 131.4739990234375 398.0914001464844 L 131.1650848388672 398.3867797851562 L 125.8771209716797 403.44287109375 L 131.1479797363281 408.4811401367188 L 132.9504089355469 410.2040100097656 L 130.4570007324219 410.2040100097656 C 129.9423370361328 410.2040100097656 129.4308013916016 410.191650390625 128.9347229003906 410.1672668457031 L 128.9301910400391 410.1939086914062 C 128.9081878662109 410.1924743652344 128.8866577148438 410.1917419433594 128.8661956787109 410.1917419433594 C 128.6775207519531 410.1917419433594 128.6224212646484 410.2511901855469 128.6043090820312 410.2707214355469 C 128.5853271484375 410.2911987304688 128.5741271972656 410.3113708496094 128.5701904296875 410.319091796875 C 128.5685119628906 410.3233032226562 128.5677185058594 410.3250427246094 128.5675811767578 410.3250427246094 C 128.5668792724609 410.3250732421875 128.5837249755859 410.2777099609375 128.5837249755859 410.2777099609375 L 127.6260070800781 409.989990234375 L 128.5391845703125 410.3975524902344 L 128.086181640625 411.4125671386719 L 128.0818786621094 411.4222106933594 L 128.0773773193359 411.4317321777344 C 127.5586242675781 412.5311279296875 126.3976364135742 413.2414855957031 125.1196212768555 413.2414855957031 Z" stroke="none"/><path d="M 125.11962890625 412.2414855957031 C 125.9431228637695 412.2414855957031 126.7986831665039 411.7982788085938 127.1729965209961 411.0050048828125 L 127.6260070800781 409.989990234375 C 127.6259994506836 409.989990234375 127.8855819702148 409.1242370605469 128.9949951171875 409.1960144042969 L 128.8769989013672 409.1629943847656 C 129.4049987792969 409.1910095214844 129.9299926757812 409.2040100097656 130.4570007324219 409.2040100097656 L 124.4300079345703 403.4429931640625 L 130.4739990234375 397.6640014648438 L 130.4739990234375 397.6419982910156 C 120.2510070800781 397.6419982910156 111.9649963378906 389.3550109863281 111.9649963378906 379.1319885253906 C 111.9649963378906 368.91064453125 120.2509841918945 360.6239929199219 130.4721374511719 360.6239929199219 C 130.4727630615234 360.6239929199219 130.4733734130859 360.6239929199219 130.4739990234375 360.6239929199219 L 130.4739990234375 360.614013671875 L 136.5160064697266 354.8359985351562 L 130.4739990234375 349.0580139160156 C 129.9389953613281 349.0589904785156 129.4049987792969 349.072998046875 128.8690032958984 349.1029968261719 L 128.9409942626953 349.0820007324219 C 127.831169128418 349.1511535644531 127.5720062255859 348.2879943847656 127.5720062255859 348.2879943847656 L 127.1159973144531 347.2739868164062 C 126.6579971313477 346.2940063476562 125.463996887207 345.85107421875 124.504997253418 346.1080017089844 L 119.0759963989258 347.56298828125 C 118.1129913330078 347.8219909667969 117.3030014038086 348.7990112304688 117.3939971923828 349.8779907226562 L 117.5080032348633 350.9849853515625 C 117.5080032348633 350.9849853515625 117.7060012817383 351.8410034179688 116.7529907226562 352.3399963378906 C 115.7790069580078 352.8380126953125 114.8219909667969 353.3829956054688 113.8949966430664 353.9939880371094 C 113.0919799804688 354.3800048828125 112.5380020141602 353.8719787597656 112.5380020141602 353.8720092773438 L 111.6380004882812 353.2179870605469 C 110.75 352.6010131835938 109.4959945678711 352.8139953613281 108.7920074462891 353.5180053710938 L 104.8190078735352 357.489990234375 C 104.1149978637695 358.1950073242188 103.9020004272461 359.4490051269531 104.5179977416992 360.3380126953125 L 105.1729965209961 361.2380065917969 C 105.1729965209961 361.2380065917969 105.7920074462891 361.89599609375 105.1750030517578 362.8210144042969 L 105.1780014038086 362.8190002441406 C 104.6100006103516 363.6950073242188 104.099006652832 364.5960083007812 103.6350021362305 365.5150146484375 C 103.1340255737305 366.407958984375 102.3110122680664 366.2230834960938 102.3109970092773 366.2229919433594 L 101.2040023803711 366.1080017089844 C 100.1271133422852 366.0185852050781 99.14600372314453 366.8280334472656 98.88900756835938 367.7890014648438 L 97.43399047851562 373.2179870605469 C 97.177001953125 374.1809997558594 97.62200164794922 375.3699951171875 98.59800720214844 375.8330078125 L 99.61499786376953 376.2850036621094 C 99.61499786376953 376.2850036621094 100.4800033569336 376.5440063476562 100.4089965820312 377.656005859375 L 100.4450073242188 377.5249938964844 C 100.3880004882812 378.5960083007812 100.3870010375977 379.6659851074219 100.443000793457 380.7359924316406 L 100.4240036010742 380.6629943847656 C 100.4960021972656 381.7730102539062 99.63099670410156 382.0339965820312 99.63099670410156 382.0339965820312 L 98.61499786376953 382.4869995117188 C 97.63600158691406 382.947998046875 97.19200134277344 384.1409912109375 97.45099639892578 385.1010131835938 L 98.90400695800781 390.5299987792969 C 99.16200256347656 391.4909973144531 100.1418914794922 392.3002319335938 101.2200012207031 392.2109985351562 L 102.3259963989258 392.093994140625 C 102.3260040283203 392.0940856933594 103.1940002441406 391.8919982910156 103.6890029907227 392.8689880371094 C 104.1859970092773 393.8389892578125 104.7279968261719 394.7890014648438 105.3379974365234 395.7090148925781 C 105.7190017700195 396.5140075683594 105.2129974365234 397.0650024414062 105.2129974365234 397.0650024414062 L 104.5609970092773 397.9660034179688 C 103.943000793457 398.8550109863281 104.1559906005859 400.1099853515625 104.859001159668 400.8139953613281 L 108.8330078125 404.7869873046875 C 109.5359954833984 405.4930419921875 110.7910079956055 405.7020263671875 111.6780014038086 405.0849914550781 L 112.5780029296875 404.4320068359375 C 112.5780029296875 404.4319763183594 113.2360076904297 403.81298828125 114.161003112793 404.4289855957031 C 115.0400009155273 404.9970092773438 115.9440078735352 405.510009765625 116.8639907836914 405.9760131835938 C 117.7480010986328 406.4779968261719 117.5650024414062 407.2950134277344 117.5650024414062 407.2950134277344 L 117.4499969482422 408.4010009765625 C 117.3580017089844 409.4779968261719 118.1699905395508 410.4580078125 119.1320037841797 410.7139892578125 L 124.5589904785156 412.1690063476562 C 124.7398986816406 412.2177124023438 124.9289016723633 412.2414855957031 125.11962890625 412.2414855957031 M 125.1196212768555 414.2414855957031 C 124.7507705688477 414.2414855957031 124.3872451782227 414.1939697265625 124.0391159057617 414.1002502441406 L 118.6140823364258 412.645751953125 C 117.7096939086914 412.4051208496094 116.887077331543 411.84619140625 116.3014068603516 411.0728759765625 C 115.6715316772461 410.2412414550781 115.3717422485352 409.2318725585938 115.4572525024414 408.2308044433594 L 115.4607238769531 408.1941528320312 L 115.5289764404297 407.5378112792969 C 114.7893600463867 407.1496276855469 114.0738372802734 406.7387084960938 113.393440246582 406.3113403320312 L 112.8200759887695 406.7268371582031 C 112.139892578125 407.1999816894531 111.329345703125 407.4500732421875 110.4760513305664 407.4500732421875 C 109.3233871459961 407.4500732421875 108.2079467773438 406.9937744140625 107.4157562255859 406.1981506347656 L 103.4449768066406 402.2283935546875 C 102.0049819946289 400.7863464355469 101.7792816162109 398.4636840820312 102.9187927246094 396.8244323730469 L 102.9407272338867 396.7935180664062 L 103.3194580078125 396.2701416015625 C 102.8972778320312 395.6000061035156 102.4912567138672 394.89306640625 102.090202331543 394.1300964355469 L 101.3846130371094 394.2041931152344 C 101.2761840820312 394.2131652832031 101.1660079956055 394.2177124023438 101.0571517944336 394.2177124023438 C 99.18328094482422 394.2177124023438 97.46540069580078 392.8848876953125 96.97240447998047 391.048583984375 L 95.51899719238281 385.6181030273438 C 95.27535247802734 384.7149658203125 95.34862518310547 383.7229614257812 95.72635650634766 382.8286743164062 C 96.13166046142578 381.8691101074219 96.85494232177734 381.1051330566406 97.76294708251953 380.6775817871094 L 97.80055236816406 380.6603393554688 L 98.425048828125 380.3818969726562 C 98.3944091796875 379.5733337402344 98.39410400390625 378.7569274902344 98.42414093017578 377.9443664550781 L 97.74078369140625 377.6399841308594 C 95.94091796875 376.7861328125 94.97828674316406 374.6633911132812 95.50161743164062 372.7023010253906 L 96.95718383789062 367.2712707519531 C 97.44831085205078 365.434814453125 99.16541290283203 364.1011657714844 101.0397872924805 364.1011657714844 C 101.1496658325195 364.1011657714844 101.2609329223633 364.1058044433594 101.3704833984375 364.1149597167969 L 101.41064453125 364.1187133789062 L 102.0689239501953 364.1870727539062 C 102.4561614990234 363.4472351074219 102.8663864135742 362.7326354980469 103.2933883666992 362.0541687011719 L 102.8740615844727 361.4770812988281 C 101.738410949707 359.8381042480469 101.9661407470703 357.5164794921875 103.4037857055664 356.0767822265625 L 107.3779754638672 352.1036071777344 C 108.171875 351.3096923828125 109.2877044677734 350.854248046875 110.4391555786133 350.854248046875 C 111.2908554077148 350.854248046875 112.1000213623047 351.1036682128906 112.779167175293 351.5755004882812 L 112.8137359619141 351.6000671386719 L 113.3331680297852 351.9775390625 C 114.0064468383789 351.5549926757812 114.7132949829102 351.1497802734375 115.4732818603516 350.7506103515625 L 115.4010620117188 350.0460510253906 C 115.2334442138672 348.058349609375 116.5899963378906 346.1605529785156 118.5565338134766 345.6316223144531 L 123.9872665405273 344.1761779785156 C 124.3339309692383 344.0832824707031 124.6959457397461 344.0361938476562 125.0633316040039 344.0361938476562 C 126.7321319580078 344.0361938476562 128.2490539550781 344.9747314453125 128.9278869628906 346.4271850585938 L 128.9400329589844 346.4537048339844 L 129.223388671875 347.0837707519531 C 129.6302032470703 347.0674438476562 130.0478820800781 347.0588073730469 130.4703369140625 347.0580139160156 L 131.2748413085938 347.0565490722656 L 139.4097595214844 354.8359985351562 L 132.4739990234375 361.4687194824219 L 132.4739990234375 362.6239929199219 L 130.4739990234375 362.6239929199219 C 126.0629959106445 362.6239929199219 121.9177169799805 364.3411560058594 118.7998809814453 367.4591674804688 C 115.6820526123047 370.5771484375 113.9649963378906 374.72265625 113.9649963378906 379.1319885253906 C 113.9649963378906 383.5421752929688 115.6821441650391 387.688232421875 118.8001480102539 390.8064575195312 C 121.9181518554688 393.9247131347656 126.0640106201172 395.6419982910156 130.4739990234375 395.6419982910156 L 132.4739990234375 395.6419982910156 L 132.4739990234375 398.5188293457031 L 127.3242416381836 403.4427795410156 L 135.4438018798828 411.2040100097656 L 130.4570007324219 411.2040100097656 C 130.0625305175781 411.2040100097656 129.6697235107422 411.1969604492188 129.2837066650391 411.1830139160156 L 128.9817504882812 411.8584899902344 C 128.2986755371094 413.3060913085938 126.7827072143555 414.2414855957031 125.1196212768555 414.2414855957031 Z" stroke="none" fill="#4a3d7b"/></g><path d="M162.043,367.748a2.3,2.3,0,0,0-2.317-1.681l-1.106.117a1.257,1.257,0,0,1-1.363-.775,29.741,29.741,0,0,0-1.647-2.841,1.235,1.235,0,0,1,.124-1.355l.652-.9a2.3,2.3,0,0,0-.3-2.845l-3.973-3.974a2.3,2.3,0,0,0-2.846-.3l-.9.654a1.259,1.259,0,0,1-1.582.005,28.914,28.914,0,0,0-2.7-1.549,1.255,1.255,0,0,1-.7-1.319l.116-1.106a2.3,2.3,0,0,0-1.683-2.314l-5.428-1.454a2.294,2.294,0,0,0-2.612,1.164l-.453,1.014a1.26,1.26,0,0,1-1.371.8l.119.033c-.526-.029-1.054-.042-1.58-.043l-.015-.015c-.535,0-1.069.015-1.6.045l.072-.021a1.258,1.258,0,0,1-1.369-.794l-.456-1.014a2.293,2.293,0,0,0-2.611-1.166l-5.429,1.455a2.3,2.3,0,0,0-1.682,2.315l.114,1.107a1.259,1.259,0,0,1-.755,1.355,29.981,29.981,0,0,0-2.858,1.654,1.235,1.235,0,0,1-1.357-.122l-.9-.654a2.3,2.3,0,0,0-2.846.3l-3.973,3.972a2.3,2.3,0,0,0-.3,2.848l.655.9a1.257,1.257,0,0,1,0,1.583l0,0a28.835,28.835,0,0,0-1.543,2.7,1.256,1.256,0,0,1-1.324.708l-1.107-.115a2.3,2.3,0,0,0-2.315,1.681l-1.455,5.429a2.3,2.3,0,0,0,1.164,2.615l1.017.452a1.257,1.257,0,0,1,.794,1.371l.036-.131q-.043.818-.042,1.634a65.848,65.848,0,0,0,11.98,3.886,18.51,18.51,0,0,1,18.089-22.421v.014a18.51,18.51,0,0,1,18.1,22.407,65.917,65.917,0,0,0,11.977-3.886c0-.539-.013-1.078-.041-1.617l.02.073a1.257,1.257,0,0,1,.792-1.371l1.017-.453a2.3,2.3,0,0,0,1.163-2.615Z" opacity="0.28" fill="url(#d)"/><path d="M178.172,373.31a8.191,8.191,0,0,1,2.762-1.842,8.283,8.283,0,0,1,6.264,0,8.185,8.185,0,0,1,2.763,1.842l1.965,1.9,3.807-3.867-1.9-1.9a13.448,13.448,0,0,0-4.574-3.039,13.779,13.779,0,0,0-10.376,0,13.481,13.481,0,0,0-4.575,3.039,13.16,13.16,0,0,0-3.008,4.543,14.2,14.2,0,0,0,0,10.377A13.16,13.16,0,0,0,174.3,388.9a13.481,13.481,0,0,0,4.575,3.039,13.791,13.791,0,0,0,10.376,0,13.448,13.448,0,0,0,4.574-3.039l1.9-1.9-3.807-3.867-1.965,1.9a7.583,7.583,0,0,1-2.7,1.842,8.547,8.547,0,0,1-3.194.614,8.038,8.038,0,0,1-5.894-2.456,8.17,8.17,0,0,1-1.842-2.763,8.29,8.29,0,0,1,0-6.262A7.523,7.523,0,0,1,178.172,373.31Z" fill="#fff"/><path d="M221.366,369.409a14,14,0,0,0-4.36-2.947,13.894,13.894,0,0,0-10.713,0,14.243,14.243,0,0,0-4.421,2.947,13.649,13.649,0,0,0-2.979,4.362,13.906,13.906,0,0,0,0,10.713,13.932,13.932,0,0,0,7.4,7.4,13.439,13.439,0,0,0,5.34,1.074h13.753V379.142a13.4,13.4,0,0,0-1.074-5.371A13.919,13.919,0,0,0,221.366,369.409Zm-1.444,18.083h-8.289a8.371,8.371,0,0,1-5.924-2.426,8.218,8.218,0,0,1-1.781-2.67,8.308,8.308,0,0,1-.643-3.254,8.09,8.09,0,0,1,.643-3.223,8.33,8.33,0,0,1,7.705-5.066,8.112,8.112,0,0,1,3.224.644,8.348,8.348,0,0,1,4.42,4.422,8.057,8.057,0,0,1,.645,3.223Z" fill="#fff"/><path d="M272.54,369.409a14.368,14.368,0,0,0-4.391-2.947,13.863,13.863,0,0,0-11.634.432,13.784,13.784,0,0,0-4.79,4.082,13.856,13.856,0,0,0-4.757-4.082,13.28,13.28,0,0,0-6.293-1.506,13.479,13.479,0,0,0-5.341,1.074A13.762,13.762,0,0,0,228,373.771a13.4,13.4,0,0,0-1.074,5.371v13.814h5.464V379.142a8.091,8.091,0,0,1,.645-3.223,8.336,8.336,0,0,1,4.421-4.422,8.1,8.1,0,0,1,3.223-.644,8.337,8.337,0,0,1,3.254.644,8.247,8.247,0,0,1,2.67,1.782,8.34,8.34,0,0,1,1.782,2.64,8.125,8.125,0,0,1,.644,3.223v13.814h5.464V379.142a8.075,8.075,0,0,1,.646-3.223,8.348,8.348,0,0,1,4.42-4.422,8.1,8.1,0,0,1,3.223-.644,8.3,8.3,0,0,1,7.7,5.066,8.092,8.092,0,0,1,.646,3.223v13.814h5.464V379.142a13.364,13.364,0,0,0-1.077-5.371A13.624,13.624,0,0,0,272.54,369.409Z" fill="#fff"/><path d="M300.66,379.2a8.292,8.292,0,0,1-5.066,7.706,8.065,8.065,0,0,1-3.222.644,8.306,8.306,0,0,1-8.351-8.35V365.451h-5.464V379.2a13.439,13.439,0,0,0,1.075,5.342,13.906,13.906,0,0,0,7.4,7.4,13.824,13.824,0,0,0,9.793.338,13.176,13.176,0,0,0,3.836-2.088v.062a8.3,8.3,0,0,1-5.066,7.7,8.082,8.082,0,0,1-3.222.645h-2.764v5.465h2.764a13.415,13.415,0,0,0,5.372-1.075,13.747,13.747,0,0,0,4.36-2.978,14.3,14.3,0,0,0,2.947-4.391,13.407,13.407,0,0,0,1.074-5.371v-24.8H300.66Z" fill="#fff"/><path d="M330.069,368.091A8.306,8.306,0,0,1,325,375.8a8.1,8.1,0,0,1-3.223.645,13.479,13.479,0,0,0-4.452.736,14.044,14.044,0,0,0-3.9,2.088V354.337h-5.465v38.619h5.465v-2.763a8.107,8.107,0,0,1,.644-3.223,8.324,8.324,0,0,1,7.707-5.064,8.1,8.1,0,0,1,3.223.642,8.366,8.366,0,0,1,4.42,4.422,8.091,8.091,0,0,1,.645,3.223v2.763h5.464v-2.763a13.368,13.368,0,0,0-1.5-6.262,13.8,13.8,0,0,0-4.084-4.789,13.9,13.9,0,0,0,4.084-4.758,13.31,13.31,0,0,0,1.5-6.293v-2.7h-5.464Z" fill="#fff"/><path d="M364.237,381.445a8,8,0,0,0-1.782-2.61,8.634,8.634,0,0,0-2.638-1.752,8.158,8.158,0,0,0-3.225-.642H345.541a2.627,2.627,0,0,1-1.965-.828,2.776,2.776,0,0,1-.8-2,2.727,2.727,0,0,1,2.763-2.764H362.18v-5.465H345.541a8.128,8.128,0,0,0-3.224.645,8.143,8.143,0,0,0-4.36,4.361,8.384,8.384,0,0,0,0,6.445,8.624,8.624,0,0,0,1.752,2.641,7.988,7.988,0,0,0,2.608,1.781,8.127,8.127,0,0,0,3.224.645h11.051a2.741,2.741,0,0,1,2.025.8,2.668,2.668,0,0,1,.8,1.965,2.733,2.733,0,0,1-2.824,2.825H340.014v5.464h16.578a8.107,8.107,0,0,0,3.225-.644,8.363,8.363,0,0,0,4.42-4.42,8.389,8.389,0,0,0,0-6.447Z" fill="#fff"/><path d="M181.635,399.022h.709l1.565,4.165,1.155-3.556h.555l1.145,3.556,1.592-4.165h.709L187.173,404H186.4l-1.065-3.3L184.29,404h-.772Z" fill="#fff"/><path d="M191.177,399.022h.709l1.565,4.165,1.155-3.556h.555l1.145,3.556,1.592-4.165h.709L196.715,404h-.772l-1.065-3.3-1.046,3.3h-.772Z" fill="#fff"/><path d="M200.719,399.022h.71l1.565,4.165,1.154-3.556h.555l1.146,3.556,1.591-4.165h.71L206.258,404h-.773l-1.064-3.3-1.046,3.3H202.6Z" fill="#fff"/><path d="M211.117,402.85h.673V404h-.673Z" fill="#fff"/><path d="M220.22,402.541a2.691,2.691,0,0,1-5.138-1.037,2.648,2.648,0,0,1,2.692-2.591,2.617,2.617,0,0,1,2.456,1.619h-.755a1.994,1.994,0,0,0-1.691-.974,1.956,1.956,0,1,0-.055,3.911,2,2,0,0,0,1.746-.928Z" fill="#fff"/><path d="M228.207,404h-.645v-.937a2.15,2.15,0,0,1-1.928,1.055,2.925,2.925,0,0,1-2.192-1.055,2.651,2.651,0,0,1-.491-1.583,2.518,2.518,0,0,1,.518-1.51,2.823,2.823,0,0,1,2.147-1.054,2.149,2.149,0,0,1,1.946,1.054v-.945h.645Zm-4.583-2.465a1.99,1.99,0,0,0,2.01,1.937,1.966,1.966,0,0,0,1.928-1.929,1.94,1.94,0,0,0-1.946-1.982A1.981,1.981,0,0,0,223.624,401.532Z" fill="#fff"/><path d="M231.337,399.022h.637v.645a1.4,1.4,0,0,1,1.328-.754,2.036,2.036,0,0,1,1.61.754c.045.064.082.127.128.192.027-.065.063-.118.1-.192a1.991,1.991,0,0,1,1.573-.754,2.212,2.212,0,0,1,1.546.754,1.944,1.944,0,0,1,.464,1.492V404h-.673v-2.775a1.835,1.835,0,0,0-.245-1.072,1.344,1.344,0,0,0-1.128-.592,1.377,1.377,0,0,0-1.1.565,1.9,1.9,0,0,0-.209,1.1V404h-.673V401.15a1.6,1.6,0,0,0-.237-.991,1.38,1.38,0,0,0-1.119-.6,1.352,1.352,0,0,0-1.09.527,1.739,1.739,0,0,0-.237,1.065V404h-.674Z" fill="#fff"/><path d="M246.073,399.022l-2.873,6.721h-.71l.782-1.9-1.909-4.819h.718l1.591,3.965,1.683-3.965Z" fill="#fff"/><path d="M248.712,397.276h.674V402l2.282-2.974h.865l-1.929,2.491L252.66,404h-.865l-1.618-1.965-.791,1.018V404h-.674Z" fill="#fff"/><path d="M255.526,402.532a.9.9,0,0,0,.9.937.83.83,0,0,0,.873-.828c0-.6-.472-.818-.964-.955a2.168,2.168,0,0,1-.9-.437,1.267,1.267,0,0,1-.4-.945,1.4,1.4,0,0,1,1.437-1.391,1.378,1.378,0,0,1,1.373,1.345h-.673a.7.7,0,0,0-.773-.7.692.692,0,0,0-.692.691c0,.546.437.692.874.828.746.237,1.391.555,1.391,1.455a1.56,1.56,0,1,1-3.119,0Z" fill="#fff"/><path d="M261.12,402.85h.672V404h-.672Z" fill="#fff"/><path d="M265.277,399.022h.637v.719a1.813,1.813,0,0,1,1.545-.828,2.3,2.3,0,0,1,1.765.828,2.435,2.435,0,0,1,.455,1.636V404h-.673v-2.62a1.92,1.92,0,0,0-.291-1.182,1.549,1.549,0,0,0-1.282-.637,1.532,1.532,0,0,0-1.219.609,1.994,1.994,0,0,0-.263,1.21V404h-.674Z" fill="#fff"/><path d="M273.291,401.75a1.909,1.909,0,0,0,1.874,1.719,1.949,1.949,0,0,0,1.782-1.092h.7a2.641,2.641,0,0,1-2.419,1.738,2.6,2.6,0,1,1,1.982-4.239,2.821,2.821,0,0,1,.582,1.874Zm3.829-.609a1.982,1.982,0,0,0-1.9-1.583,1.953,1.953,0,0,0-1.928,1.583Z" fill="#fff"/><path d="M281.278,399.631h-1.037v-.609h1.037v-1.746h.673v1.746h1.154v.609h-1.154V404h-.673Z" fill="#fff"/></g></g></svg>