<svg xmlns="http://www.w3.org/2000/svg" width="400.004" height="400.004" viewBox="0 0 400.004 400.004"><g transform="translate(-760 -300)"><g transform="translate(760 300)" fill="none" stroke-miterlimit="10"><path d="M200,0C89.6,0,0,89.6,0,200S89.6,400,200,400s200-89.6,200-200S310.4,0,200,0Z" stroke="none"/><path d="M 200.0020141601562 5 C 186.7756958007812 5 173.5573883056641 6.333709716796875 160.7141418457031 8.964019775390625 C 148.2003936767578 11.52682495117188 135.8899536132812 15.35089111328125 124.1248779296875 20.329833984375 C 112.5726318359375 25.21868896484375 101.4290161132812 31.269775390625 91.00357055664062 38.31500244140625 C 80.67608642578125 45.29400634765625 70.96365356445312 53.30862426757812 62.13613891601562 62.13613891601562 C 53.30862426757812 70.96365356445312 45.29400634765625 80.67608642578125 38.31500244140625 91.00357055664062 C 31.269775390625 101.4290161132812 25.21868896484375 112.5726318359375 20.329833984375 124.1248779296875 C 15.35089111328125 135.8899536132812 11.52682495117188 148.2003936767578 8.964019775390625 160.7141418457031 C 6.333709716796875 173.5573883056641 5 186.7756958007812 5 200.0020141601562 C 5 213.2283325195312 6.333709716796875 226.4466400146484 8.964019775390625 239.2898864746094 C 11.52682495117188 251.8036346435547 15.35089111328125 264.1140747070312 20.329833984375 275.879150390625 C 25.21868896484375 287.431396484375 31.269775390625 298.5750122070312 38.31500244140625 309.0004577636719 C 45.29400634765625 319.3279418945312 53.30862426757812 329.0404052734375 62.13613891601562 337.8678894042969 C 70.96365356445312 346.6953735351562 80.67608642578125 354.7100219726562 91.00357055664062 361.6890258789062 C 101.4290161132812 368.7342529296875 112.5726318359375 374.7853393554688 124.1248779296875 379.6741943359375 C 135.8899536132812 384.6531372070312 148.2003936767578 388.4772033691406 160.7141418457031 391.0400085449219 C 173.5573883056641 393.6703186035156 186.7756958007812 395.0040283203125 200.0020141601562 395.0040283203125 C 213.2283325195312 395.0040283203125 226.4466400146484 393.6703186035156 239.2898864746094 391.0400085449219 C 251.8036346435547 388.4772033691406 264.1140747070312 384.6531372070312 275.879150390625 379.6741943359375 C 287.431396484375 374.7853393554688 298.5750122070312 368.7342529296875 309.0004577636719 361.6890258789062 C 319.3279418945312 354.7100219726562 329.0404052734375 346.6953735351562 337.8678894042969 337.8678894042969 C 346.6953735351562 329.0404052734375 354.7100219726562 319.3279418945312 361.6890258789062 309.0004577636719 C 368.7342529296875 298.5750122070312 374.7853393554688 287.431396484375 379.6741943359375 275.879150390625 C 384.6531372070312 264.1140747070312 388.4772033691406 251.8036346435547 391.0400085449219 239.2898864746094 C 393.6703186035156 226.4466400146484 395.0040283203125 213.2283325195312 395.0040283203125 200.0020141601562 C 395.0040283203125 186.7756958007812 393.6703186035156 173.5573883056641 391.0400085449219 160.7141418457031 C 388.4772033691406 148.2003936767578 384.6531372070312 135.8899536132812 379.6741943359375 124.1248779296875 C 374.7853393554688 112.5726318359375 368.7342529296875 101.4290161132812 361.6890258789062 91.00357055664062 C 354.7100219726562 80.67608642578125 346.6953735351562 70.96365356445312 337.8678894042969 62.13613891601562 C 329.0404052734375 53.30862426757812 319.3279418945312 45.29400634765625 309.0004577636719 38.31500244140625 C 298.5750122070312 31.269775390625 287.431396484375 25.21868896484375 275.879150390625 20.329833984375 C 264.1140747070312 15.35089111328125 251.8036346435547 11.52682495117188 239.2898864746094 8.964019775390625 C 226.4466400146484 6.333709716796875 213.2283325195312 5 200.0020141601562 5 M 200.0020141601562 0 C 310.4031372070312 0 400.0040283203125 89.60089111328125 400.0040283203125 200.0020141601562 C 400.0040283203125 310.4031372070312 310.4031372070312 400.0040283203125 200.0020141601562 400.0040283203125 C 89.60089111328125 400.0040283203125 0 310.4031372070312 0 200.0020141601562 C 0 89.60089111328125 89.60089111328125 0 200.0020141601562 0 Z" stroke="none" fill="#707070"/></g><path d="M81.093,169,0,87.9,22.868,65.036,81.093,123.1,204.192,0,227.06,23.03Z" transform="translate(846.473 411.303)" fill="#707070"/></g></svg>