<svg xmlns="http://www.w3.org/2000/svg" width="43.589" height="54.619" viewBox="0 0 43.589 54.619"><g transform="translate(-782 -316)"><path d="M18.745,1.5H6.847A5.346,5.346,0,0,0,1.5,6.847V45.211a5.346,5.346,0,0,0,5.347,5.347H34.181a5.347,5.347,0,0,0,5.347-5.347V21.955a6.043,6.043,0,0,0-2.054-4.537L22.736,3.005A6.048,6.048,0,0,0,18.745,1.5Z" transform="translate(783.28 317.28)" fill="none" stroke="#fff" stroke-miterlimit="10" stroke-width="2"/><line x2="23.923" transform="translate(791.596 348.641)" fill="none" stroke="#fff" stroke-miterlimit="10" stroke-width="4"/><line x2="23.923" transform="translate(791.596 357.27)" fill="none" stroke="#fff" stroke-miterlimit="10" stroke-width="4"/><line x2="14.122" transform="translate(791.596 339.858)" fill="none" stroke="#fff" stroke-miterlimit="10" stroke-width="4"/><rect width="43.589" height="54.619" transform="translate(782 316)" fill="none"/></g></svg>