<svg xmlns="http://www.w3.org/2000/svg" width="148" height="148" viewBox="0 0 148 148"><g transform="translate(9.804 10.393)"><rect width="148" height="148" transform="translate(-9.804 -10.393)" fill="none"/><g transform="translate(13.474 38.569)"><rect width="25.393" height="8.088" rx="0.223" transform="translate(0 56.24)" fill="#fff"/><path d="M200.731,94.22H146.375a1.929,1.929,0,1,0,0,3.859h54.356a1.929,1.929,0,0,0,0-3.859Z" transform="translate(-112.122 -39.909)" fill="#fff"/><path d="M200.731,96.3H146.375a1.929,1.929,0,1,0,0,3.859h54.356a1.929,1.929,0,1,0,0-3.859Z" transform="translate(-112.122 -33.958)" fill="#fff"/><rect width="25.393" height="7.575" rx="0.223" transform="translate(0 28.248)" fill="#fff"/><rect width="25.393" height="7.574" rx="0.223" fill="#fff"/></g><path d="M248.4,115.317a9.143,9.143,0,0,1-2.651.432,8.7,8.7,0,0,1-3.137-.648v16.8a1.312,1.312,0,0,1-1.308,1.308H139.673a1.309,1.309,0,0,1-1.308-1.308V112.01a1.26,1.26,0,0,1,1.262-1.262h60.209l-1.563-1.567a8.606,8.606,0,0,1-2.261-4.221H139.673a1.312,1.312,0,0,1-1.308-1.308V83.762a1.263,1.263,0,0,1,1.262-1.266h49.54V81.485a8.647,8.647,0,0,1,1.516-4.777H139.627a7.058,7.058,0,0,0-7.05,7.053v19.891a7.024,7.024,0,0,0,1.4,4.187,6.97,6.97,0,0,0-1.4,4.171V131.9a7.024,7.024,0,0,0,1.4,4.187,6.978,6.978,0,0,0-1.4,4.171v19.891a7.1,7.1,0,0,0,7.1,7.1H241.3a7.107,7.107,0,0,0,7.1-7.1V140.255a6.981,6.981,0,0,0-1.4-4.171,7.027,7.027,0,0,0,1.4-4.187Zm-5.788,44.829a1.312,1.312,0,0,1-1.308,1.308H139.673a1.309,1.309,0,0,1-1.308-1.308V140.255a1.262,1.262,0,0,1,1.262-1.262H241.343a1.266,1.266,0,0,1,1.266,1.262Z" transform="translate(-132.577 -51.4)" fill="#fff"/><g transform="translate(61.633)"><path d="M184.134,136.042h-5.271a6.148,6.148,0,0,1-5.827-4.553l-1.242-4.966-4.391,2.635a6.16,6.16,0,0,1-7.339-.9l-3.727-3.731a6.145,6.145,0,0,1-.9-7.335l2.632-4.391-4.962-1.242a6.143,6.143,0,0,1-4.553-5.823v-5.275a6.16,6.16,0,0,1,4.549-5.826l4.966-1.242L155.434,89a6.159,6.159,0,0,1,.907-7.347l3.724-3.724a6.158,6.158,0,0,1,7.339-.9l4.391,2.635,1.242-4.97a6.15,6.15,0,0,1,5.827-4.545h5.271A6.145,6.145,0,0,1,189.96,74.7l1.242,4.966,4.391-2.635a6.186,6.186,0,0,1,7.335.9l3.731,3.731a6.159,6.159,0,0,1,.9,7.343l-2.635,4.383,4.966,1.246h.008a6.161,6.161,0,0,1,4.545,5.826v5.275a6.143,6.143,0,0,1-4.553,5.823l-4.966,1.246,2.635,4.387a6.159,6.159,0,0,1-.9,7.339l-3.731,3.727a6.146,6.146,0,0,1-7.343.9l-4.383-2.632-1.242,4.966A6.144,6.144,0,0,1,184.134,136.042ZM171.968,120.72a2.656,2.656,0,0,1,1.119.251c.56.262,1.138.5,1.725.714a2.622,2.622,0,0,1,1.651,1.833l1.675,6.695a.987.987,0,0,0,.725.571h5.271a.991.991,0,0,0,.725-.567l1.671-6.695a2.628,2.628,0,0,1,1.659-1.841c.587-.208,1.158-.448,1.717-.71a2.628,2.628,0,0,1,2.473.123l5.919,3.55a.938.938,0,0,0,.907-.108l3.731-3.731a.971.971,0,0,0,.112-.911l-3.55-5.919a2.63,2.63,0,0,1-.127-2.47c.266-.563.5-1.131.714-1.721a2.616,2.616,0,0,1,1.837-1.655l6.7-1.675a1.02,1.02,0,0,0,.563-.722v-5.275a1,1,0,0,0-.567-.725l-6.695-1.675a2.624,2.624,0,0,1-1.833-1.648c-.212-.587-.444-1.158-.71-1.717a2.621,2.621,0,0,1,.12-2.481l3.554-5.919a.984.984,0,0,0-.116-.911l-3.731-3.731a.983.983,0,0,0-.907-.108l-5.915,3.55a2.642,2.642,0,0,1-2.47.123c-.563-.262-1.134-.5-1.725-.71a2.643,2.643,0,0,1-1.659-1.841l-1.671-6.695a.986.986,0,0,0-.725-.563h-5.271a.986.986,0,0,0-.725.563l-1.675,6.7a2.629,2.629,0,0,1-1.651,1.833c-.587.212-1.165.451-1.725.714a2.649,2.649,0,0,1-2.473-.123l-5.915-3.55a.992.992,0,0,0-.911.108l-3.727,3.727a.97.97,0,0,0-.112.914l3.55,5.919a2.641,2.641,0,0,1,.124,2.469c-.266.559-.5,1.127-.71,1.713a2.612,2.612,0,0,1-1.837,1.663l-6.7,1.675a1,1,0,0,0-.563.725v5.275a1.01,1.01,0,0,0,.559.718l6.7,1.678a2.622,2.622,0,0,1,1.841,1.667,17.888,17.888,0,0,0,.706,1.709,2.642,2.642,0,0,1-.124,2.47l-3.55,5.919a.961.961,0,0,0,.108.907l3.731,3.739a.968.968,0,0,0,.9.108l5.923-3.554A2.654,2.654,0,0,1,171.968,120.72Z" transform="translate(-148.55 -70.149)" fill="#fff"/><g transform="translate(19.771 19.771)"><path d="M166.851,101.623a13.175,13.175,0,1,1,13.177-13.177A13.192,13.192,0,0,1,166.851,101.623Zm0-21.091a7.916,7.916,0,1,0,7.914,7.914A7.923,7.923,0,0,0,166.851,80.532Z" transform="translate(-153.674 -75.273)" fill="#fff"/></g></g><g transform="translate(45.798 36.383)"><path d="M181.99,86.9H146.375a1.929,1.929,0,1,0,0,3.859h38.038A8.672,8.672,0,0,1,181.99,86.9Z" transform="translate(-144.446 -58.65)" fill="#fff"/><path d="M200.731,88.981H146.375a1.929,1.929,0,1,0,0,3.859h54.356a1.929,1.929,0,0,0,0-3.859Z" transform="translate(-144.446 -52.699)" fill="#fff"/><path d="M146.375,79.578a1.929,1.929,0,1,0,0,3.859h10.152a8.644,8.644,0,0,1-1.235-3.859Z" transform="translate(-144.446 -79.578)" fill="#fff"/><path d="M164.329,82.162l-2-.5H146.375a1.929,1.929,0,1,0,0,3.859h16.079a8.261,8.261,0,0,1,.575-1.192Z" transform="translate(-144.446 -73.626)" fill="#fff"/></g></g></svg>