<svg xmlns="http://www.w3.org/2000/svg" width="148" height="148" viewBox="0 0 148 148"><g transform="translate(20.214 11.827)"><rect width="148" height="148" transform="translate(-20.214 -11.827)" fill="none"/><g transform="translate(88.994 73.605)"><line y1="34.112" transform="translate(2.849 2.847)" fill="#fff"/><path d="M93.654,131.618a2.846,2.846,0,0,1-2.848-2.848V94.663a2.848,2.848,0,1,1,5.7,0V128.77A2.846,2.846,0,0,1,93.654,131.618Z" transform="translate(-90.806 -91.815)" fill="#fff"/></g><g transform="translate(50.77)"><path d="M84.5,96.629a2.846,2.846,0,0,1-2.848-2.848V77.038a2.846,2.846,0,1,1,5.692,0V93.78A2.843,2.843,0,0,1,84.5,96.629Z" transform="translate(-81.653 -74.19)" fill="#fff"/></g><g transform="translate(50.77 43.716)"><line x1="0.474" y1="64.003" transform="translate(2.847 2.844)" fill="#fff"/><path d="M84.973,154.35a2.85,2.85,0,0,1-2.848-2.827l-.472-64a2.846,2.846,0,0,1,2.827-2.865H84.5a2.843,2.843,0,0,1,2.844,2.823l.476,64a2.848,2.848,0,0,1-2.827,2.865Z" transform="translate(-81.653 -84.658)" fill="#fff"/></g><g transform="translate(13.013)"><path d="M75.932,146.016a2.85,2.85,0,0,1-2.848-2.827l-.472-66.134a2.843,2.843,0,0,1,2.827-2.865h.021A2.846,2.846,0,0,1,78.3,77.017l.476,66.134a2.845,2.845,0,0,1-2.827,2.865Z" transform="translate(-72.612 -74.19)" fill="#fff"/></g><g transform="translate(13.485 93.099)"><line y1="14.616" transform="translate(2.849 2.848)" fill="#fff"/><path d="M75.573,116.792a2.846,2.846,0,0,1-2.848-2.848V99.327a2.848,2.848,0,0,1,5.7,0v14.617A2.846,2.846,0,0,1,75.573,116.792Z" transform="translate(-72.725 -96.483)" fill="#fff"/></g><g transform="translate(88.522)"><path d="M94.013,126.517a2.851,2.851,0,0,1-2.848-2.819l-.472-46.635a2.845,2.845,0,0,1,2.819-2.873,2.93,2.93,0,0,1,2.873,2.819l.476,46.635a2.845,2.845,0,0,1-2.819,2.873Z" transform="translate(-90.693 -74.19)" fill="#fff"/></g><g transform="translate(37.285 16.746)"><path d="M94.753,110.862a16.331,16.331,0,1,1,16.333-16.333A16.348,16.348,0,0,1,94.753,110.862Zm0-26.97a10.639,10.639,0,1,0,10.641,10.637A10.648,10.648,0,0,0,94.753,83.892Z" transform="translate(-78.424 -78.2)" fill="#fff"/></g><g transform="translate(75.514 46.635)"><path d="M103.907,118.019A16.331,16.331,0,1,1,120.24,101.69,16.347,16.347,0,0,1,103.907,118.019Zm0-26.97a10.639,10.639,0,1,0,10.641,10.641A10.652,10.652,0,0,0,103.907,91.049Z" transform="translate(-87.578 -85.357)" fill="#fff"/></g><g transform="translate(0 66.134)"><path d="M85.829,122.684a16.329,16.329,0,1,1,16.329-16.329A16.351,16.351,0,0,1,85.829,122.684Zm0-26.966a10.637,10.637,0,1,0,10.637,10.637A10.652,10.652,0,0,0,85.829,95.718Z" transform="translate(-69.496 -90.026)" fill="#fff"/></g></g></svg>