<svg xmlns="http://www.w3.org/2000/svg" width="148" height="148" viewBox="0 0 148 148"><g transform="translate(15.964 22.024)"><path d="M-1604.344-365.872h-86.439a15.2,15.2,0,0,1-15.18-15.18V-437.9a15.2,15.2,0,0,1,15.18-15.18h.856v6.264h-.856a8.926,8.926,0,0,0-8.916,8.916v56.85a8.926,8.926,0,0,0,8.916,8.915h86.439a8.926,8.926,0,0,0,8.916-8.915v-72.791a8.926,8.926,0,0,0-8.916-8.916h-22.368a6.5,6.5,0,0,0-5.107,2.452l-5.337,8.415a12.865,12.865,0,0,1-10.2,5.074h-2.572v-6.264h2.572a6.518,6.518,0,0,0,5.112-2.452l5.333-8.415a12.862,12.862,0,0,1,10.2-5.074h22.368a15.2,15.2,0,0,1,15.18,15.18v72.791A15.2,15.2,0,0,1-1604.344-365.872Z" transform="translate(1705.964 469.084)" fill="#fff"/><path d="M-1604.344-365.372h-86.439a15.7,15.7,0,0,1-15.68-15.68V-437.9a15.7,15.7,0,0,1,15.68-15.68h1.356v7.264h-1.356a8.426,8.426,0,0,0-8.416,8.416v56.85a8.425,8.425,0,0,0,8.416,8.415h86.439a8.425,8.425,0,0,0,8.416-8.415v-72.791a8.426,8.426,0,0,0-8.416-8.416h-22.368a6,6,0,0,0-4.7,2.243l-5.336,8.414-.016.021a13.356,13.356,0,0,1-10.59,5.263h-3.072v-7.264h3.072a6.02,6.02,0,0,0,4.7-2.243l5.333-8.414.016-.021a13.352,13.352,0,0,1,10.589-5.263h22.368a15.7,15.7,0,0,1,15.68,15.68v72.791A15.7,15.7,0,0,1-1604.344-365.372Zm-86.439-87.211a14.7,14.7,0,0,0-14.68,14.68v56.85a14.7,14.7,0,0,0,14.68,14.68h86.439a14.7,14.7,0,0,0,14.68-14.68v-72.791a14.7,14.7,0,0,0-14.68-14.68h-22.368a12.368,12.368,0,0,0-9.79,4.865l-5.334,8.416-.017.022a7.015,7.015,0,0,1-5.5,2.639h-2.072v5.264h2.072a12.372,12.372,0,0,0,9.791-4.865l5.337-8.415.017-.021a7,7,0,0,1,5.5-2.639h22.368a9.427,9.427,0,0,1,9.416,9.416v72.791a9.427,9.427,0,0,1-9.416,9.415h-86.439a9.427,9.427,0,0,1-9.416-9.415V-437.9a9.427,9.427,0,0,1,9.416-9.416h.356v-5.264Z" transform="translate(1705.964 469.084)" fill="rgba(0,0,0,0)"/><g transform="translate(15.038 0)"><rect width="148" height="148" transform="translate(-31.002 -22.024)" fill="none"/><g transform="translate(48.815 58.828)"><path d="M178.664,94.22H146.375a1.929,1.929,0,1,0,0,3.859h32.288a1.929,1.929,0,0,0,0-3.859Z" transform="translate(-144.446 -70.146)" fill="#fff"/><path d="M178.664,94.22H146.375a1.929,1.929,0,1,0,0,3.859h32.288a1.929,1.929,0,0,0,0-3.859Z" transform="translate(-144.446 -82.183)" fill="#fff"/><path d="M178.664,94.22H146.375a1.929,1.929,0,1,0,0,3.859h32.288a1.929,1.929,0,0,0,0-3.859Z" transform="translate(-144.446 -94.22)" fill="#fff"/></g><path d="M-164.456-82.441h-2.495c-.121-.024-.241-.053-.363-.072-1.161-.18-2.342-.277-3.48-.55a21.308,21.308,0,0,1-15.826-24.648,20.691,20.691,0,0,1,6.49-11.658,20.8,20.8,0,0,1,17.358-5.442,20.328,20.328,0,0,1,11.087,5.066,20.843,20.843,0,0,1,6.943,12.349c.14.8.22,1.61.327,2.416v2.5c-.025.147-.056.293-.076.44-.1.768-.161,1.544-.305,2.3a20.784,20.784,0,0,1-5.769,10.968,20.761,20.761,0,0,1-11.469,6C-162.836-82.631-163.648-82.549-164.456-82.441Zm-9.7-29.317a32.5,32.5,0,0,0-.875,6.744h8.053v-6.242Zm9.715,6.751h8.061a32.716,32.716,0,0,0-.868-6.694l-7.193.453Zm-13.217.008.911-7.191c-.013,0-.091-.024-.169-.042-1.52-.359-3.044-.7-4.558-1.089-.3-.076-.407,0-.544.24a18.113,18.113,0,0,0-2.04,5.326c-.186.9-.292,1.815-.439,2.756Zm28.164,10.77a18.468,18.468,0,0,0,2.522-8.229h-6.795l-.905,7.013Zm0-19-5.16,1.15.888,7.066h6.793A18.489,18.489,0,0,0-149.485-113.225Zm-14.948,10.763v6.127l7.176.494a33.013,33.013,0,0,0,.879-6.62Zm-9.724,6.571,7.173-.448v-6.125h-8.042A32.521,32.521,0,0,0-174.157-95.891Zm-3.484-6.572H-184.4a.594.594,0,0,0-.025.133,18.1,18.1,0,0,0,2.368,7.829.5.5,0,0,0,.435.114c1.321-.293,2.637-.612,3.956-.915.329-.076.665-.123.919-.168Zm13.208-11.306,6.484-.386c-.117-.319-.2-.55-.285-.778a15.971,15.971,0,0,0-3.339-5.59,6.4,6.4,0,0,0-2.859-1.805Zm-8.98,20.329a15.985,15.985,0,0,0,3.952,6.709,6.29,6.29,0,0,0,2.487,1.446v-8.538Zm6.438-20.337v-8.546a5.65,5.65,0,0,0-2.191,1.191,14.215,14.215,0,0,0-3.766,5.592c-.175.414-.321.84-.509,1.334Zm2.522,28.564c3.712-1.533,5.127-4.766,6.516-8.179l-6.488-.424c-.017.154-.027.208-.027.261C-164.454-90.813-164.454-88.071-164.454-85.212Zm-15.984-6.945c1.245,2.084,6.415,5.877,7.947,5.843a21.713,21.713,0,0,1-3.487-6.776Zm29.446.11-4.461-.979a22.987,22.987,0,0,1-3.424,6.75A18.307,18.307,0,0,0-150.991-92.047Zm-7.778-29.115a22.805,22.805,0,0,1,3.346,6.665l4.431-.923A18.459,18.459,0,0,0-158.769-121.162Zm-13.869,0a18.439,18.439,0,0,0-7.685,5.627l4.368.963A22.68,22.68,0,0,1-172.639-121.161Z" transform="translate(187.002 125.012)" fill="#fff"/><path d="M-164.448-82.316l-2.527,0-.116-.024c-.083-.018-.162-.034-.241-.047-.371-.058-.751-.107-1.118-.156a23.165,23.165,0,0,1-2.372-.4,21.125,21.125,0,0,1-12.888-9.215,21.26,21.26,0,0,1-3.032-15.579,20.867,20.867,0,0,1,6.529-11.727,20.773,20.773,0,0,1,14.35-5.675,24.764,24.764,0,0,1,3.108.2,20.487,20.487,0,0,1,11.154,5.1,21.038,21.038,0,0,1,6.983,12.421c.1.551.165,1.114.232,1.659.031.25.062.509.1.762v.017l0,2.517c-.008.048-.017.1-.026.143-.018.1-.036.2-.049.292-.033.252-.062.509-.091.757-.058.511-.118,1.039-.216,1.553a20.975,20.975,0,0,1-5.8,11.033,20.956,20.956,0,0,1-11.536,6.04c-.552.1-1.117.165-1.663.232-.251.031-.51.063-.764.1Zm-2.49-.25h2.474c.253-.034.509-.065.758-.1.543-.067,1.1-.136,1.651-.23a20.71,20.71,0,0,0,11.4-5.969,20.729,20.729,0,0,0,5.735-10.9c.1-.505.156-1.029.213-1.535.028-.25.058-.508.091-.762.014-.1.033-.206.051-.3.008-.043.016-.086.024-.13v-2.476c-.034-.252-.065-.509-.1-.757-.066-.542-.135-1.1-.23-1.646a20.794,20.794,0,0,0-6.9-12.277,20.241,20.241,0,0,0-11.02-5.036,24.516,24.516,0,0,0-3.077-.2,20.53,20.53,0,0,0-14.181,5.61,20.622,20.622,0,0,0-6.452,11.59,21.011,21.011,0,0,0,3,15.4,20.876,20.876,0,0,0,12.735,9.107,22.979,22.979,0,0,0,2.346.391c.369.048.75.1,1.124.157.087.013.172.032.255.049Zm2.359-2.459v-.187c0-2.859,0-5.6,0-8.342a1.116,1.116,0,0,1,.012-.136c0-.035.01-.079.016-.138l.013-.119,6.781.443-.065.161c-1.267,3.115-2.7,6.645-6.584,8.248Zm.264-8.658,0,.023a.961.961,0,0,0-.01.106c0,2.681,0,5.362,0,8.153a9.094,9.094,0,0,0,3.9-3.267,23.569,23.569,0,0,0,2.308-4.61Zm-2.534,8.563-.159-.044a6.365,6.365,0,0,1-2.537-1.473,16.094,16.094,0,0,1-3.989-6.766l-.046-.152,6.73-.4Zm-6.4-8.2a15.749,15.749,0,0,0,3.869,6.5,6.257,6.257,0,0,0,2.28,1.372V-93.69Zm14.009,7.318.261-.345a22.9,22.9,0,0,0,3.405-6.714l.036-.107,4.77,1.046-.128.158a18.392,18.392,0,0,1-7.939,5.81Zm3.868-6.873a23.413,23.413,0,0,1-3.15,6.331,18.131,18.131,0,0,0,7.3-5.42Zm-17.141,6.691c-1.6,0-6.782-3.808-8.034-5.9l-.09-.151,4.74-.991.035.105a21.448,21.448,0,0,0,3.466,6.738l.157.2-.252.006Zm-7.725-5.883a16.721,16.721,0,0,0,3.716,3.514,12.313,12.313,0,0,0,3.749,2.089,21.884,21.884,0,0,1-3.29-6.476Zm30.808-2.014-5.378-1.263.934-7.234h7.038l-.009.133a18.682,18.682,0,0,1-2.539,8.284Zm-5.1-1.455,4.978,1.169a18.427,18.427,0,0,0,2.45-7.961h-6.551Zm-27.183,1.288c-.12,0-.37-.039-.454-.186a18.3,18.3,0,0,1-2.384-7.882.363.363,0,0,1,.016-.121c0-.014.007-.029.011-.045l.02-.1h6.972l.923,7.22-.117.021-.247.042c-.206.034-.439.073-.666.125q-.749.172-1.5.348c-.806.189-1.639.384-2.461.567A.54.54,0,0,1-181.712-94.253Zm-2.589-8.085a18.05,18.05,0,0,0,2.352,7.775.442.442,0,0,0,.237.06.29.29,0,0,0,.062-.006c.821-.182,1.653-.377,2.458-.566q.748-.175,1.5-.349c.235-.054.472-.093.682-.128l.126-.021-.865-6.765Zm27.14,6.628-7.4-.509v-6.368h8.308l0,.129a32.909,32.909,0,0,1-.882,6.645Zm-7.148-.742,6.954.478a32.631,32.631,0,0,0,.846-6.363h-7.8Zm-9.946.693-.025-.1a32.412,32.412,0,0,1-.872-6.6l0-.129h8.3v6.367Zm-.643-6.579a32.133,32.133,0,0,0,.837,6.316l6.95-.434v-5.882Zm-2.646-2.535h-7.095l.023-.144c.046-.294.089-.59.13-.877.093-.65.182-1.264.31-1.885a18.323,18.323,0,0,1,2.054-5.363.517.517,0,0,1,.462-.332.907.907,0,0,1,.221.032c1.115.283,2.255.55,3.358.808l1.2.281.16.04.118.03-.014.11-.911,7.191Zm-6.8-.25h6.583l.883-6.972-.06-.015-1.2-.281c-1.1-.258-2.245-.525-3.362-.809a.668.668,0,0,0-.16-.024c-.09,0-.144.029-.245.206a18.074,18.074,0,0,0-2.026,5.289c-.127.613-.215,1.224-.308,1.87C-184.272-105.618-184.308-105.371-184.346-105.123Zm28.1.242h-8.314v-6.484l7.415-.467.024.1a33.046,33.046,0,0,1,.871,6.72Zm-8.064-.25h7.807a32.8,32.8,0,0,0-.837-6.438l-6.97.439Zm17.48.248h-7.037l-.916-7.289,5.36-1.194.046.079a18.718,18.718,0,0,1,2.537,8.271Zm-6.816-.25h6.548a18.46,18.46,0,0,0-2.448-7.949l-4.96,1.105Zm-13.2.245h-8.306l0-.128a32.783,32.783,0,0,1,.878-6.77l.024-.1,7.4.517Zm-8.05-.25h7.8v-6l-6.956-.486A32.545,32.545,0,0,0-174.9-105.139Zm10.339-8.5v-8.857l.159.045a6.46,6.46,0,0,1,2.915,1.838,15.812,15.812,0,0,1,3.366,5.633c.058.152.114.306.178.484l.108.3.058.158Zm.25-8.524v8.259l6.184-.368-.05-.139c-.064-.177-.119-.329-.177-.479a15.578,15.578,0,0,0-3.312-5.548A6.308,6.308,0,0,0-164.308-122.159Zm-2.542,8.517-6.768-.45.06-.158c.061-.161.118-.314.172-.463.113-.306.219-.594.338-.876a14.381,14.381,0,0,1,3.8-5.639,5.788,5.788,0,0,1,2.239-1.216l.157-.042Zm-6.415-.677,6.165.41v-8.247a5.548,5.548,0,0,0-1.986,1.121,14.153,14.153,0,0,0-3.731,5.545c-.117.276-.222.562-.334.865Zm17.758-.033-.035-.106a22.685,22.685,0,0,0-3.327-6.629l-.262-.35.407.159a18.538,18.538,0,0,1,7.829,5.78l.129.159Zm-2.9-6.531a23.187,23.187,0,0,1,3.071,6.241l4.12-.858A18.265,18.265,0,0,0-158.411-120.883Zm-17.461,6.459-4.678-1.032.13-.158a18.5,18.5,0,0,1,7.736-5.664l.405-.157-.26.348a22.538,22.538,0,0,0-3.3,6.554Zm-4.224-1.187,4.057.895A22.99,22.99,0,0,1-173-120.883,18.235,18.235,0,0,0-180.1-115.612Z" transform="translate(187.002 125.012)" fill="#fff"/></g></g></svg>