<svg xmlns="http://www.w3.org/2000/svg" width="148" height="148" viewBox="0 0 148 148"><g transform="translate(11.524 15.834)"><rect width="148" height="148" transform="translate(-11.524 -15.834)" fill="none"/><g transform="translate(15.381 40.6)"><path d="M295.655,152.727H265a3.286,3.286,0,0,1-3.284-3.285V124.695H241.491v24.748a3.286,3.286,0,0,1-3.284,3.285H207.551a3.286,3.286,0,0,1-3.285-3.285V87.913a3.285,3.285,0,1,1,6.569,0v58.245h24.086V121.41a3.286,3.286,0,0,1,3.285-3.285H265a3.286,3.286,0,0,1,3.285,3.285v24.748h24.087V87.913a3.285,3.285,0,1,1,6.569,0v61.53A3.286,3.286,0,0,1,295.655,152.727Z" transform="translate(-204.267 -84.628)" fill="#fff"/></g><g transform="translate(0 0.003)"><path d="M204.04,135.724a3.285,3.285,0,0,1-2.216-5.711l58.946-53.8a3.284,3.284,0,0,1,4.428,4.852l-58.946,53.8A3.259,3.259,0,0,1,204.04,135.724Z" transform="translate(-200.755 -75.358)" fill="#fff"/></g><g transform="translate(59.432)"><path d="M276.561,135.726a3.261,3.261,0,0,1-2.216-.858L215.4,81.072a3.286,3.286,0,1,1,4.432-4.852l58.951,53.8a3.285,3.285,0,0,1-2.216,5.711Z" transform="translate(-214.326 -75.357)" fill="#fff"/></g></g></svg>