<svg xmlns="http://www.w3.org/2000/svg" width="148" height="148" viewBox="0 0 148 148"><g transform="translate(21.751 9.952)"><rect width="148" height="148" transform="translate(-21.751 -9.952)" fill="none"/><g transform="translate(32.661 78.599)"><g transform="translate(0 9.436)"><path d="M304.941,128.23a19.571,19.571,0,0,1-13.335-33.91,3.154,3.154,0,0,1,4.3,4.619,13.128,13.128,0,0,0-4.236,9.7,13.278,13.278,0,0,0,26.557,0,13.1,13.1,0,0,0-4.24-9.7,3.157,3.157,0,0,1,4.3-4.627,19.574,19.574,0,0,1-13.335,33.919Z" transform="translate(-285.355 -93.47)" fill="#fff"/></g><g transform="translate(16.431)"><path d="M292.416,118.991a3.156,3.156,0,0,1-3.155-3.155V94.382a3.155,3.155,0,0,1,6.31,0v21.454A3.156,3.156,0,0,1,292.416,118.991Z" transform="translate(-289.261 -91.227)" fill="#fff"/></g></g><g transform="translate(0 5.302)"><g transform="translate(21.732)"><path d="M313.272,134.83a30.513,30.513,0,1,1,30.511-30.511A30.548,30.548,0,0,1,313.272,134.83Zm0-54.717a24.2,24.2,0,1,0,24.2,24.205A24.234,24.234,0,0,0,313.272,80.113Z" transform="translate(-282.757 -73.803)" fill="#fff"/></g><g transform="translate(65.298 50.413)"><path d="M327.733,137.441a3.156,3.156,0,0,1-3.155-3.155A45.422,45.422,0,0,0,295.164,91.9a3.159,3.159,0,0,1,2.213-5.919,51.791,51.791,0,0,1,33.51,48.3A3.156,3.156,0,0,1,327.733,137.441Z" transform="translate(-293.113 -85.787)" fill="#fff"/></g><g transform="translate(0 50.847)"><path d="M280.746,137.111a3.156,3.156,0,0,1-3.155-3.155,51.323,51.323,0,0,1,32.333-47.843,3.155,3.155,0,1,1,2.351,5.856A45.042,45.042,0,0,0,283.9,133.956,3.153,3.153,0,0,1,280.746,137.111Z" transform="translate(-277.591 -85.89)" fill="#fff"/></g></g></g></svg>